<svg xmlns="http://www.w3.org/2000/svg" xmlns:v="https://svgstorm.com"
viewBox = "0 0 488 264"
width="488"
height="264">
<g fill="None" fill-opacity="0.0" stroke="#000000" stroke-opacity="0.00" stroke-width="0.3"><path d="
M 0.00 264.00 
L 488.00 264.00
L 488.00 0.00
L 0.00 0.00
L 0.00 264.00
M 167.00 14.00 
C 167.50 14.00 168.00 14.00 168.00 14.00
C 180.70 12.63 196.57 22.08 205.75 30.25 C 214.93 38.42 225.85 53.28 225.00 66.00
C 224.97 66.50 225.00 67.00 225.00 67.00
C 228.48 71.71 225.65 84.94 225.00 90.00
C 225.26 92.45 224.42 94.25 224.00 96.00
C 224.13 97.75 223.54 98.49 223.00 100.00
C 221.48 104.26 219.45 108.41 217.00 112.00
C 216.69 112.45 216.33 113.69 216.00 114.00
C 215.12 115.22 213.86 116.37 214.00 118.00
C 226.24 115.69 228.58 128.19 225.00 137.00
C 225.00 137.50 225.00 138.00 225.00 138.00
C 230.25 144.56 218.02 142.26 216.00 142.00
C 213.57 142.15 211.75 141.41 210.00 141.00
C 203.85 139.56 196.94 133.75 190.78 135.78 C 184.62 137.81 177.16 141.61 170.00 142.00
C 165.05 142.80 157.88 144.08 153.00 142.00
C 152.50 142.00 151.50 142.01 151.00 142.00
C 128.93 141.43 98.88 116.05 98.00 93.00
C 97.98 92.50 98.00 92.00 98.00 92.00
C 88.94 75.42 99.61 52.44 109.25 38.25 C 118.90 24.06 137.85 16.82 154.00 14.00
C 154.18 13.64 155.63 13.08 156.00 13.00
C 158.92 12.38 164.90 12.45 167.00 14.00
M 291.00 20.00 
C 293.68 20.89 292.58 21.05 294.00 23.00
C 299.62 30.71 303.71 42.08 309.31 49.69 C 314.90 57.31 317.83 71.45 324.92 77.08 C 332.01 82.71 347.69 71.63 356.68 69.68 C 365.66 67.73 379.76 61.96 389.00 59.00
C 391.42 56.90 395.06 56.67 398.00 56.00
C 406.06 53.10 415.34 47.07 424.00 48.00
C 416.94 52.68 408.59 55.89 401.00 60.00
C 400.53 60.13 399.49 59.92 399.00 60.00
C 372.48 73.00 346.04 86.98 319.00 99.00
C 317.94 100.50 315.72 101.05 314.00 101.00
C 307.93 107.94 294.68 110.87 286.31 115.31 C 277.93 119.74 266.33 126.81 257.00 129.00
C 256.53 129.11 256.00 129.00 256.00 129.00
C 251.32 136.49 235.06 137.89 228.00 142.00
C 232.59 131.41 237.59 121.03 242.77 110.77 C 247.95 100.51 252.93 89.37 258.31 79.31 C 263.68 69.24 268.02 57.34 273.77 47.77 C 279.52 38.20 282.28 23.31 291.00 20.00
M 348.00 128.00 
C 347.66 132.68 310.47 131.46 328.00 122.00
C 332.55 119.55 337.62 116.36 343.00 116.00
C 343.42 120.47 347.85 123.53 348.00 128.00
M 31.00 162.00 
C 31.23 162.35 31.00 163.00 31.00 163.00
C 35.12 168.57 30.82 178.67 32.00 186.00 C 33.18 193.33 31.38 203.19 32.00 211.00 C 32.62 218.81 31.54 228.06 32.00 236.00
C 43.46 238.97 52.28 232.04 64.00 236.00 C 75.72 239.96 66.31 253.89 55.00 250.00 C 43.69 246.11 32.85 252.34 22.00 250.00 C 11.15 247.66 16.79 233.86 16.00 224.00 C 15.21 214.14 15.90 200.94 16.00 191.00 C 16.10 181.06 13.59 167.87 19.00 161.00
C 19.25 160.75 20.00 161.00 20.00 161.00
C 21.93 159.58 29.97 158.56 31.00 162.00
M 143.00 210.00 
C 143.55 213.13 145.21 216.91 143.00 220.00
C 138.85 225.82 126.14 220.54 119.00 222.00 C 111.86 223.46 99.61 220.91 92.00 222.00
C 92.95 238.54 113.62 241.85 126.00 236.00
C 131.01 234.13 130.13 231.20 135.75 237.25 C 141.37 243.29 127.92 250.45 122.00 250.00
C 121.50 249.96 121.00 250.00 121.00 250.00
C 112.41 256.36 96.06 248.64 88.25 242.75 C 80.45 236.85 74.48 223.80 76.33 213.33 C 78.18 202.86 82.70 193.35 92.70 187.70 C 102.70 182.04 114.53 180.44 125.23 185.77 C 135.93 191.10 140.99 198.54 143.00 210.00
M 205.00 188.00 
C 205.01 187.58 205.82 186.39 206.00 186.00
C 207.76 182.17 217.33 181.07 220.00 185.00
C 224.30 191.33 218.66 205.18 220.00 214.00 C 221.34 222.82 222.00 236.97 220.00 246.00
C 218.40 253.22 203.95 251.47 205.00 243.00
C 200.88 246.35 196.61 250.19 191.00 250.00
C 186.93 250.84 182.99 250.71 179.00 250.00
C 168.56 249.29 160.69 241.70 156.00 233.00
C 153.99 229.27 152.32 226.64 152.00 222.00
C 151.56 215.61 151.88 209.74 154.00 204.00
C 157.69 194.00 166.40 185.56 177.00 183.00
C 178.44 182.65 180.60 182.17 182.00 182.00
C 183.82 181.77 186.17 181.80 188.00 182.00
C 192.31 182.47 204.18 189.65 205.00 188.00
M 273.00 196.00 
C 268.65 198.32 263.49 197.25 259.00 200.00
C 254.29 205.19 248.79 207.95 249.00 216.00 C 249.22 224.05 245.51 231.96 248.00 241.00 C 250.49 250.04 237.23 254.75 234.00 246.00
C 229.50 233.82 233.00 213.50 233.00 200.00
C 233.00 192.79 229.83 184.07 239.00 183.00 C 248.18 181.93 248.39 188.77 249.00 196.00
C 252.50 188.80 259.76 184.24 267.00 182.00
C 276.07 180.73 280.41 192.04 273.00 196.00
M 347.00 207.00 
C 346.97 207.50 346.82 208.58 347.00 209.00
C 349.51 214.91 348.60 223.85 348.00 231.00 C 347.40 238.15 352.53 248.25 343.00 250.00 C 333.46 251.75 331.72 244.57 333.00 236.00 C 334.28 227.43 332.17 219.96 333.00 212.00 C 333.83 204.04 330.24 200.03 325.00 196.00
C 323.52 195.68 321.52 195.97 320.00 196.00
C 311.84 196.15 308.16 199.02 303.00 205.00
C 301.87 206.85 300.28 210.28 300.00 212.00
C 300.00 217.52 300.71 223.54 300.00 229.00 C 299.29 234.46 301.75 241.81 300.00 247.00
C 298.11 252.61 285.93 251.49 285.00 245.00
C 283.78 231.59 285.00 217.48 285.00 204.00
C 285.00 198.85 284.20 190.01 285.33 185.33 C 286.46 180.65 298.91 182.31 300.00 185.00
C 300.55 186.37 300.09 189.51 300.00 191.00
C 300.14 191.44 301.40 192.79 302.00 193.00
C 313.36 173.21 349.19 183.16 347.00 207.00
M 411.00 189.00 
C 413.54 190.59 415.11 191.63 417.00 194.00
C 422.73 201.18 430.98 222.60 416.00 222.00 C 401.02 221.40 386.90 222.45 372.00 222.00
C 373.34 230.05 380.37 237.82 389.00 238.00
C 392.82 238.78 396.03 239.00 400.00 238.00
C 407.29 236.17 413.53 230.98 419.00 240.00
C 416.82 246.37 409.01 248.94 403.00 250.00
C 397.04 251.30 390.56 251.15 385.00 250.00
C 371.23 247.15 360.35 238.42 358.00 224.00
C 357.97 223.79 357.05 223.35 357.00 223.00
C 356.45 219.21 356.71 214.03 358.00 211.00
C 358.00 210.50 357.98 209.50 358.00 209.00
C 359.08 182.59 394.12 178.44 411.00 189.00
M 466.00 197.00 
C 462.96 197.72 459.53 200.84 457.00 203.00
C 450.03 209.97 450.00 217.46 450.00 227.00
C 450.00 232.59 451.81 241.77 450.00 247.00
C 448.40 251.62 435.67 252.32 434.68 246.32 C 433.69 240.33 433.67 231.90 434.93 225.93 C 436.19 219.95 433.98 209.51 435.00 204.00 C 436.02 198.49 430.06 187.21 436.00 184.00
C 438.15 181.76 444.76 182.89 447.00 184.00
C 448.90 184.95 448.02 184.03 449.00 186.00
C 450.39 188.80 450.03 192.54 450.00 196.00
C 455.10 189.42 456.54 186.63 465.08 183.08 C 473.61 179.53 481.10 185.69 477.00 196.00
C 473.27 195.99 469.92 197.66 466.00 197.00 Z"/>
</g>
<g fill="None" fill-opacity="0.0" stroke="#002B84" stroke-opacity="0.27" stroke-width="0.3"><path d="
M 154.00 14.00 
C 153.80 14.40 154.00 15.00 154.00 15.00
C 158.55 14.69 163.45 14.75 168.00 15.00
C 167.99 15.00 168.00 14.00 168.00 14.00
C 168.00 14.00 167.50 14.00 167.00 14.00
C 163.48 14.00 158.71 13.02 156.00 13.00
C 155.63 13.08 154.18 13.64 154.00 14.00 Z"/>
</g>
<g fill="None" fill-opacity="0.0" stroke="#015183" stroke-opacity="0.03" stroke-width="0.3"><path d="
M 167.00 14.00 
C 164.90 12.45 158.92 12.38 156.00 13.00
C 158.71 13.02 163.48 14.00 167.00 14.00 Z"/>
</g>
<g fill="None" fill-opacity="0.0" stroke="#004680" stroke-opacity="0.12" stroke-width="0.3"><path d="
M 98.00 92.00 
C 98.64 82.50 95.17 70.02 98.98 60.98 C 102.78 51.93 104.96 45.66 111.00 38.00
C 113.65 34.65 116.82 31.72 120.00 29.00
C 129.23 21.11 141.98 15.82 154.00 15.00
C 154.00 15.00 153.80 14.40 154.00 14.00
C 137.85 16.82 118.90 24.06 109.25 38.25 C 99.61 52.44 88.94 75.42 98.00 92.00 Z"/>
</g>
<g fill="None" fill-opacity="0.0" stroke="#014478" stroke-opacity="0.12" stroke-width="0.3"><path d="
M 168.00 15.00 
C 181.85 15.75 194.56 22.08 205.00 31.00
C 208.58 34.06 211.39 37.19 214.00 41.00
C 218.83 48.04 222.98 55.45 224.00 64.00
C 224.06 64.49 224.00 65.50 224.00 66.00
C 224.34 66.23 225.00 66.00 225.00 66.00
C 225.85 53.28 214.93 38.42 205.75 30.25 C 196.57 22.08 180.70 12.63 168.00 14.00
C 168.00 14.00 167.99 15.00 168.00 15.00 Z"/>
</g>
<g fill="None" fill-opacity="0.0" stroke="#011B8F" stroke-opacity="0.96" stroke-width="0.3"><path d="
M 120.00 29.00 
C 117.14 31.86 113.69 35.09 111.00 38.00
C 104.96 45.66 102.78 51.93 98.98 60.98 C 95.17 70.02 98.64 82.50 98.00 92.00
C 98.00 92.00 97.98 92.50 98.00 93.00
C 103.12 99.30 104.69 109.86 110.00 117.00
C 113.12 120.58 117.55 124.81 121.00 128.00
C 130.22 135.28 140.59 138.37 151.00 142.00
C 151.50 142.01 152.50 142.00 153.00 142.00
C 158.64 142.00 164.37 142.31 170.00 142.00
C 177.16 141.61 184.62 137.81 190.78 135.78 C 196.94 133.75 203.85 139.56 210.00 141.00
C 212.65 141.08 215.36 141.50 218.00 142.00
C 219.41 142.00 221.67 142.44 223.00 142.00
C 227.14 139.81 221.97 126.51 224.00 123.00
C 222.28 121.30 218.71 122.96 218.00 120.00
C 217.23 119.82 213.43 119.31 213.00 119.00
C 209.47 116.44 216.98 112.02 217.00 112.00
C 219.45 108.41 221.48 104.26 223.00 100.00
C 222.94 101.43 219.33 96.16 224.00 95.00
C 220.72 85.74 223.84 72.96 224.00 64.00
C 222.98 55.45 218.83 48.04 214.00 41.00
C 211.18 37.76 208.07 34.07 205.00 31.00
C 194.56 22.08 181.85 15.75 168.00 15.00
C 163.45 14.75 158.55 14.69 154.00 15.00
C 141.98 15.82 129.23 21.11 120.00 29.00
M 172.00 38.00 
C 172.50 37.97 173.00 38.00 173.00 38.00
C 177.83 38.18 184.08 41.44 188.00 44.00
C 190.71 45.76 193.17 48.44 195.00 51.00
C 197.76 54.87 201.90 61.16 202.00 66.00
C 202.01 66.50 202.00 67.00 202.00 67.00
C 203.57 68.94 203.91 71.31 204.00 74.00
C 204.52 76.90 204.46 79.18 204.00 82.00
C 204.25 88.56 200.62 95.26 198.00 101.00
C 196.08 105.21 191.83 109.16 188.00 112.00
C 181.60 116.76 174.70 118.77 167.00 120.00
C 166.99 120.00 165.71 122.11 162.00 122.00 C 158.29 121.89 156.69 120.99 154.00 120.00
C 131.29 116.39 117.05 95.76 119.00 73.00
C 118.75 68.74 118.91 68.82 121.00 65.00
C 123.79 56.74 128.59 50.99 135.00 45.00
C 138.45 41.78 141.48 39.86 145.00 39.00
C 152.62 35.94 164.65 33.98 172.00 38.00 Z"/>
</g>
<g fill="None" fill-opacity="0.0" stroke="#003B76" stroke-opacity="0.13" stroke-width="0.3"><path d="
M 256.00 129.00 
C 247.11 132.48 238.93 137.70 230.00 141.00
C 247.58 101.16 268.52 62.62 287.00 23.00
C 288.08 21.52 288.87 19.86 291.00 20.00
C 282.28 23.31 279.52 38.20 273.77 47.77 C 268.02 57.34 263.68 69.24 258.31 79.31 C 252.93 89.37 247.95 100.51 242.77 110.77 C 237.59 121.03 232.59 131.41 228.00 142.00
C 235.06 137.89 251.32 136.49 256.00 129.00 Z"/>
</g>
<g fill="None" fill-opacity="0.0" stroke="#002973" stroke-opacity="0.29" stroke-width="0.3"><path d="
M 287.00 23.00 
C 289.37 20.72 291.66 20.71 294.00 23.00
C 292.58 21.05 293.68 20.89 291.00 20.00
C 288.87 19.86 288.08 21.52 287.00 23.00 Z"/>
</g>
<g fill="None" fill-opacity="0.0" stroke="#021B8E" stroke-opacity="0.95" stroke-width="0.3"><path d="
M 287.00 23.00 
C 268.52 62.62 247.58 101.16 230.00 141.00
C 238.93 137.70 247.11 132.48 256.00 129.00
C 256.00 129.00 256.53 129.11 257.00 129.00
C 264.92 122.65 275.94 119.60 285.08 115.08 C 294.21 110.56 303.48 104.74 313.00 101.00
C 314.98 99.85 316.69 98.83 319.00 98.00
C 343.35 89.23 366.67 74.91 390.00 64.00
C 391.40 63.06 392.42 60.62 394.00 60.00
C 391.37 57.67 390.23 62.92 388.00 60.00
C 368.30 67.43 347.96 73.40 328.00 80.00
C 327.14 80.28 327.21 83.00 324.78 81.22 C 322.34 79.43 324.39 78.93 324.00 78.00
C 317.04 70.54 315.66 58.57 309.08 50.92 C 302.49 43.28 300.97 29.83 294.00 23.00
C 291.66 20.71 289.37 20.72 287.00 23.00
M 293.00 58.00 
C 297.47 65.14 301.13 74.34 305.00 82.00
C 307.76 86.02 309.16 87.42 304.00 90.00
C 293.24 95.38 281.87 99.61 271.00 105.00
C 267.90 106.54 266.33 108.45 267.00 104.00
C 268.15 96.34 274.79 89.02 277.77 81.77 C 280.75 74.52 284.10 64.78 288.00 58.00
C 288.89 56.45 289.03 54.00 292.00 55.00
C 291.47 56.28 292.97 56.86 293.00 58.00 Z"/>
</g>
<g fill="None" fill-opacity="0.0" stroke="#00407B" stroke-opacity="0.12" stroke-width="0.3"><path d="
M 324.00 78.00 
C 325.51 79.62 325.54 79.89 328.00 80.00
C 347.96 73.40 368.30 67.43 388.00 60.00
C 388.35 59.87 388.74 59.22 389.00 59.00
C 379.76 61.96 365.66 67.73 356.68 69.68 C 347.69 71.63 332.01 82.71 324.92 77.08 C 317.83 71.45 314.90 57.31 309.31 49.69 C 303.71 42.08 299.62 30.71 294.00 23.00
C 300.97 29.83 302.49 43.28 309.08 50.92 C 315.66 58.57 317.04 70.54 324.00 78.00 Z"/>
</g>
<g fill="None" fill-opacity="0.0" stroke="#002F72" stroke-opacity="0.33" stroke-width="0.3"><path d="
M 111.00 38.00 
C 113.69 35.09 117.14 31.86 120.00 29.00
C 116.82 31.72 113.65 34.65 111.00 38.00 Z"/>
</g>
<g fill="None" fill-opacity="0.0" stroke="#002770" stroke-opacity="0.34" stroke-width="0.3"><path d="
M 214.00 41.00 
C 211.39 37.19 208.58 34.06 205.00 31.00
C 208.07 34.07 211.18 37.76 214.00 41.00 Z"/>
</g>
<g fill="None" fill-opacity="0.0" stroke="#03447C" stroke-opacity="0.13" stroke-width="0.3"><path d="
M 145.00 39.00 
C 141.44 40.43 138.06 42.73 135.00 45.00
C 128.59 50.99 123.79 56.74 121.00 65.00
C 120.50 66.49 119.87 67.25 120.00 69.00
C 126.82 60.60 126.72 51.74 137.25 44.25 C 147.78 36.76 159.82 38.82 172.00 38.00
C 164.65 33.98 152.62 35.94 145.00 39.00 Z"/>
</g>
<g fill="None" fill-opacity="0.0" stroke="#000000" stroke-opacity="0.00" stroke-width="0.3"><path d="
M 120.00 69.00 
C 120.04 69.50 120.00 70.00 120.00 70.00
C 120.00 85.54 122.54 102.35 136.25 111.75 C 149.96 121.15 167.00 121.61 181.07 115.07 C 195.15 108.53 201.59 93.45 204.00 80.00
C 204.00 79.00 204.00 78.00 204.00 77.00
C 203.36 74.09 202.54 70.33 202.00 67.00
C 202.00 67.00 202.01 66.50 202.00 66.00
C 198.72 59.73 195.72 54.80 191.25 48.75 C 186.77 42.71 178.03 42.09 173.00 38.00
C 173.00 38.00 172.50 37.97 172.00 38.00
C 159.82 38.82 147.78 36.76 137.25 44.25 C 126.72 51.74 126.82 60.60 120.00 69.00
M 185.00 65.00 
C 184.61 66.70 184.33 68.28 184.00 70.00
C 182.87 75.82 182.64 82.14 184.00 88.00
C 185.13 90.96 185.88 94.12 187.00 97.00
C 188.43 99.89 191.21 100.68 190.00 104.00
C 188.92 106.97 185.36 108.83 183.00 110.00
C 182.36 110.32 181.87 110.67 181.00 111.00
C 169.83 118.66 165.90 108.34 163.02 97.98 C 160.15 87.61 156.67 72.75 162.00 63.00
C 162.01 62.50 162.00 62.00 162.00 62.00
C 162.24 55.81 164.86 48.56 169.31 43.31 C 173.75 38.05 180.36 44.48 186.75 48.25 C 193.13 52.02 186.74 59.72 185.00 65.00 Z"/>
</g>
<g fill="None" fill-opacity="0.0" stroke="#00196D" stroke-opacity="0.62" stroke-width="0.3"><path d="
M 135.00 45.00 
C 138.06 42.73 141.44 40.43 145.00 39.00
C 141.48 39.86 138.45 41.78 135.00 45.00 Z"/>
</g>
<g fill="None" fill-opacity="0.0" stroke="#003C7A" stroke-opacity="0.13" stroke-width="0.3"><path d="
M 202.00 66.00 
C 201.90 61.16 197.76 54.87 195.00 51.00
C 193.35 49.04 189.96 45.50 188.00 44.00
C 184.08 41.44 177.83 38.18 173.00 38.00
C 178.03 42.09 186.77 42.71 191.25 48.75 C 195.72 54.80 198.72 59.73 202.00 66.00 Z"/>
</g>
<g fill="None" fill-opacity="0.0" stroke="#003F76" stroke-opacity="0.13" stroke-width="0.3"><path d="
M 162.00 62.00 
C 166.22 57.08 165.69 51.50 169.75 45.75 C 173.82 40.01 179.82 44.15 185.00 48.00
C 188.26 50.43 189.83 51.60 189.00 55.00
C 188.14 58.52 185.83 61.37 185.00 65.00
C 186.74 59.72 193.13 52.02 186.75 48.25 C 180.36 44.48 173.75 38.05 169.31 43.31 C 164.86 48.56 162.24 55.81 162.00 62.00 Z"/>
</g>
<g fill="None" fill-opacity="0.0" stroke="#011B8E" stroke-opacity="0.95" stroke-width="0.3"><path d="
M 162.00 62.00 
C 162.00 62.00 162.01 62.50 162.00 63.00
C 161.63 78.82 158.79 98.01 170.00 111.00
C 173.87 114.34 179.94 111.15 183.00 110.00
C 185.36 108.83 188.92 106.97 190.00 104.00
C 190.34 101.79 187.77 98.99 187.00 97.00
C 185.88 94.12 185.13 90.96 184.00 88.00
C 181.56 81.64 181.90 76.27 184.00 70.00
C 184.33 68.28 184.61 66.70 185.00 65.00
C 185.83 61.37 188.14 58.52 189.00 55.00
C 189.09 52.40 186.89 49.65 185.00 48.00
C 179.82 44.15 173.82 40.01 169.75 45.75 C 165.69 51.50 166.22 57.08 162.00 62.00 Z"/>
</g>
<g fill="None" fill-opacity="0.0" stroke="#001B77" stroke-opacity="0.54" stroke-width="0.3"><path d="
M 195.00 51.00 
C 193.17 48.44 190.71 45.76 188.00 44.00
C 189.96 45.50 193.35 49.04 195.00 51.00 Z"/>
</g>
<g fill="None" fill-opacity="0.0" stroke="#003A62" stroke-opacity="0.10" stroke-width="0.3"><path d="
M 398.00 56.00 
C 401.71 55.15 405.37 54.26 409.00 53.00
C 411.66 52.08 414.77 50.07 418.00 50.00
C 416.21 51.90 413.30 52.64 411.00 54.00
C 407.33 55.88 404.05 57.54 401.00 60.00
C 408.59 55.89 416.94 52.68 424.00 48.00
C 415.34 47.07 406.06 53.10 398.00 56.00 Z"/>
</g>
<g fill="None" fill-opacity="0.0" stroke="#001965" stroke-opacity="0.47" stroke-width="0.3"><path d="
M 189.00 55.00 
C 189.83 51.60 188.26 50.43 185.00 48.00
C 186.89 49.65 189.09 52.40 189.00 55.00 Z"/>
</g>
<g fill="None" fill-opacity="0.0" stroke="#002258" stroke-opacity="0.45" stroke-width="0.3"><path d="
M 409.00 53.00 
C 409.89 53.02 410.73 53.98 411.00 54.00
C 413.30 52.64 416.21 51.90 418.00 50.00
C 414.77 50.07 411.66 52.08 409.00 53.00 Z"/>
</g>
<g fill="None" fill-opacity="0.0" stroke="#00216F" stroke-opacity="0.64" stroke-width="0.3"><path d="
M 398.00 56.00 
C 395.06 56.67 391.42 56.90 389.00 59.00
C 388.74 59.22 388.35 59.87 388.00 60.00
C 390.23 62.92 391.37 57.67 394.00 60.00
C 392.42 60.62 391.40 63.06 390.00 64.00
C 392.96 62.62 395.77 60.56 399.00 60.00
C 399.49 59.92 400.53 60.13 401.00 60.00
C 404.05 57.54 407.33 55.88 411.00 54.00
C 410.73 53.98 409.89 53.02 409.00 53.00
C 405.37 54.26 401.71 55.15 398.00 56.00 Z"/>
</g>
<g fill="None" fill-opacity="0.0" stroke="#001974" stroke-opacity="0.50" stroke-width="0.3"><path d="
M 288.00 58.00 
C 289.57 56.09 291.42 56.20 293.00 58.00
C 292.97 56.86 291.47 56.28 292.00 55.00
C 289.03 54.00 288.89 56.45 288.00 58.00 Z"/>
</g>
<g fill="None" fill-opacity="0.0" stroke="#003A76" stroke-opacity="0.14" stroke-width="0.3"><path d="
M 288.00 58.00 
C 284.10 64.78 280.75 74.52 277.77 81.77 C 274.79 89.02 268.15 96.34 267.00 104.00
C 267.68 106.90 268.77 105.62 271.00 105.00
C 281.87 99.61 293.24 95.38 304.00 90.00
C 304.85 89.43 305.76 88.23 307.00 88.00
C 307.44 85.67 305.76 83.98 305.00 82.00
C 301.13 74.34 297.47 65.14 293.00 58.00
C 291.42 56.20 289.57 56.09 288.00 58.00
M 306.00 88.00 
C 293.07 92.86 280.76 99.61 268.00 105.00
C 274.98 88.90 283.05 73.16 290.00 57.00
C 295.43 66.73 302.31 77.20 306.00 88.00 Z"/>
</g>
<g fill="None" fill-opacity="0.0" stroke="#000000" stroke-opacity="0.00" stroke-width="0.3"><path d="
M 306.00 88.00 
C 302.31 77.20 295.43 66.73 290.00 57.00
C 283.05 73.16 274.98 88.90 268.00 105.00
C 280.76 99.61 293.07 92.86 306.00 88.00 Z"/>
</g>
<g fill="None" fill-opacity="0.0" stroke="#00407B" stroke-opacity="0.13" stroke-width="0.3"><path d="
M 390.00 64.00 
C 366.67 74.91 343.35 89.23 319.00 98.00
C 318.84 98.06 319.00 99.00 319.00 99.00
C 346.04 86.98 372.48 73.00 399.00 60.00
C 395.77 60.56 392.96 62.62 390.00 64.00 Z"/>
</g>
<g fill="None" fill-opacity="0.0" stroke="#00356F" stroke-opacity="0.13" stroke-width="0.3"><path d="
M 181.00 111.00 
C 176.09 112.84 174.06 115.71 170.00 111.00
C 158.79 98.01 161.63 78.82 162.00 63.00
C 156.67 72.75 160.15 87.61 163.02 97.98 C 165.90 108.34 169.83 118.66 181.00 111.00 Z"/>
</g>
<g fill="None" fill-opacity="0.0" stroke="#002580" stroke-opacity="0.76" stroke-width="0.3"><path d="
M 224.00 95.00 
C 224.16 95.44 224.00 96.00 224.00 96.00
C 224.42 94.25 225.26 92.45 225.00 90.00
C 224.95 89.51 225.00 89.00 225.00 89.00
C 221.76 84.63 224.00 71.72 224.00 66.00
C 224.00 65.50 224.06 64.49 224.00 64.00
C 223.84 72.96 220.72 85.74 224.00 95.00 Z"/>
</g>
<g fill="None" fill-opacity="0.0" stroke="#001A71" stroke-opacity="0.65" stroke-width="0.3"><path d="
M 119.00 73.00 
C 119.15 71.30 118.93 71.15 120.00 70.00
C 120.00 70.00 120.04 69.50 120.00 69.00
C 119.87 67.25 120.50 66.49 121.00 65.00
C 118.91 68.82 118.75 68.74 119.00 73.00 Z"/>
</g>
<g fill="None" fill-opacity="0.0" stroke="#001A6F" stroke-opacity="0.42" stroke-width="0.3"><path d="
M 225.00 89.00 
C 224.99 81.67 224.99 74.33 225.00 67.00
C 225.00 67.00 224.97 66.50 225.00 66.00
C 225.00 66.00 224.34 66.23 224.00 66.00
C 224.00 71.72 221.76 84.63 225.00 89.00 Z"/>
</g>
<g fill="None" fill-opacity="0.0" stroke="#003975" stroke-opacity="0.10" stroke-width="0.3"><path d="
M 204.00 77.00 
C 204.00 76.00 204.03 75.00 204.00 74.00
C 203.91 71.31 203.57 68.94 202.00 67.00
C 202.54 70.33 203.36 74.09 204.00 77.00 Z"/>
</g>
<g fill="None" fill-opacity="0.0" stroke="#174E80" stroke-opacity="0.03" stroke-width="0.3"><path d="
M 225.00 89.00 
C 225.00 89.00 224.95 89.51 225.00 90.00
C 225.65 84.94 228.48 71.71 225.00 67.00
C 224.99 74.33 224.99 81.67 225.00 89.00 Z"/>
</g>
<g fill="None" fill-opacity="0.0" stroke="#004279" stroke-opacity="0.13" stroke-width="0.3"><path d="
M 119.00 73.00 
C 117.05 95.76 131.29 116.39 154.00 120.00
C 158.66 120.74 162.60 120.70 167.00 120.00
C 174.70 118.77 181.60 116.76 188.00 112.00
C 191.13 109.28 196.06 104.37 198.00 101.00
C 200.62 95.26 204.25 88.56 204.00 82.00
C 203.98 81.50 204.00 80.50 204.00 80.00
C 201.59 93.45 195.15 108.53 181.07 115.07 C 167.00 121.61 149.96 121.15 136.25 111.75 C 122.54 102.35 120.00 85.54 120.00 70.00
C 118.93 71.15 119.15 71.30 119.00 73.00 Z"/>
</g>
<g fill="None" fill-opacity="0.0" stroke="#003370" stroke-opacity="0.19" stroke-width="0.3"><path d="
M 184.00 88.00 
C 182.64 82.14 182.87 75.82 184.00 70.00
C 181.90 76.27 181.56 81.64 184.00 88.00 Z"/>
</g>
<g fill="None" fill-opacity="0.0" stroke="#000F70" stroke-opacity="0.45" stroke-width="0.3"><path d="
M 204.00 77.00 
C 204.00 78.00 204.00 79.00 204.00 80.00
C 204.00 80.50 203.98 81.50 204.00 82.00
C 204.46 79.18 204.52 76.90 204.00 74.00
C 204.03 75.00 204.00 76.00 204.00 77.00 Z"/>
</g>
<g fill="None" fill-opacity="0.0" stroke="#001A77" stroke-opacity="0.66" stroke-width="0.3"><path d="
M 328.00 80.00 
C 325.54 79.89 325.51 79.62 324.00 78.00
C 324.39 78.93 322.34 79.43 324.78 81.22 C 327.21 83.00 327.14 80.28 328.00 80.00 Z"/>
</g>
<g fill="None" fill-opacity="0.0" stroke="#00186E" stroke-opacity="0.50" stroke-width="0.3"><path d="
M 304.00 90.00 
C 309.16 87.42 307.76 86.02 305.00 82.00
C 305.76 83.98 307.44 85.67 307.00 88.00
C 305.76 88.23 304.85 89.43 304.00 90.00 Z"/>
</g>
<g fill="None" fill-opacity="0.0" stroke="#003670" stroke-opacity="0.14" stroke-width="0.3"><path d="
M 151.00 142.00 
C 140.59 138.37 130.22 135.28 121.00 128.00
C 117.05 124.88 112.98 121.00 110.00 117.00
C 104.69 109.86 103.12 99.30 98.00 93.00
C 98.88 116.05 128.93 141.43 151.00 142.00 Z"/>
</g>
<g fill="None" fill-opacity="0.0" stroke="#002171" stroke-opacity="0.47" stroke-width="0.3"><path d="
M 223.00 100.00 
C 223.54 98.49 224.13 97.75 224.00 96.00
C 224.00 96.00 224.16 95.44 224.00 95.00
C 219.33 96.16 222.94 101.43 223.00 100.00 Z"/>
</g>
<g fill="None" fill-opacity="0.0" stroke="#003C70" stroke-opacity="0.09" stroke-width="0.3"><path d="
M 190.00 104.00 
C 191.21 100.68 188.43 99.89 187.00 97.00
C 187.77 98.99 190.34 101.79 190.00 104.00 Z"/>
</g>
<g fill="None" fill-opacity="0.0" stroke="#002F71" stroke-opacity="0.35" stroke-width="0.3"><path d="
M 313.00 101.00 
C 313.43 100.83 314.00 101.00 314.00 101.00
C 315.72 101.05 317.94 100.50 319.00 99.00
C 319.00 99.00 318.84 98.06 319.00 98.00
C 316.69 98.83 314.98 99.85 313.00 101.00 Z"/>
</g>
<g fill="None" fill-opacity="0.0" stroke="#001F71" stroke-opacity="0.45" stroke-width="0.3"><path d="
M 188.00 112.00 
C 191.83 109.16 196.08 105.21 198.00 101.00
C 196.06 104.37 191.13 109.28 188.00 112.00 Z"/>
</g>
<g fill="None" fill-opacity="0.0" stroke="#003972" stroke-opacity="0.14" stroke-width="0.3"><path d="
M 257.00 129.00 
C 266.33 126.81 277.93 119.74 286.31 115.31 C 294.68 110.87 307.93 107.94 314.00 101.00
C 314.00 101.00 313.43 100.83 313.00 101.00
C 303.48 104.74 294.21 110.56 285.08 115.08 C 275.94 119.60 264.92 122.65 257.00 129.00 Z"/>
</g>
<g fill="None" fill-opacity="0.0" stroke="#001371" stroke-opacity="0.44" stroke-width="0.3"><path d="
M 271.00 105.00 
C 268.77 105.62 267.68 106.90 267.00 104.00
C 266.33 108.45 267.90 106.54 271.00 105.00 Z"/>
</g>
<g fill="None" fill-opacity="0.0" stroke="#001B70" stroke-opacity="0.57" stroke-width="0.3"><path d="
M 170.00 111.00 
C 174.06 115.71 176.09 112.84 181.00 111.00
C 181.87 110.67 182.36 110.32 183.00 110.00
C 179.94 111.15 173.87 114.34 170.00 111.00 Z"/>
</g>
<g fill="None" fill-opacity="0.0" stroke="#002170" stroke-opacity="0.39" stroke-width="0.3"><path d="
M 213.00 119.00 
C 212.04 116.39 214.64 115.31 216.00 114.00
C 216.33 113.69 216.69 112.45 217.00 112.00
C 216.98 112.02 209.47 116.44 213.00 119.00 Z"/>
</g>
<g fill="None" fill-opacity="0.0" stroke="#06427A" stroke-opacity="0.09" stroke-width="0.3"><path d="
M 213.00 119.00 
C 213.43 119.31 217.23 119.82 218.00 120.00
C 227.33 122.13 225.00 128.03 225.00 137.00
C 228.58 128.19 226.24 115.69 214.00 118.00
C 213.86 116.37 215.12 115.22 216.00 114.00
C 214.64 115.31 212.04 116.39 213.00 119.00 Z"/>
</g>
<g fill="None" fill-opacity="0.0" stroke="#001E81" stroke-opacity="0.80" stroke-width="0.3"><path d="
M 328.00 122.00 
C 314.10 131.44 346.08 131.10 348.00 128.00
C 347.85 123.53 343.42 120.47 343.00 116.00
C 337.62 116.36 332.55 119.55 328.00 122.00 Z"/>
</g>
<g fill="None" fill-opacity="0.0" stroke="#001968" stroke-opacity="0.51" stroke-width="0.3"><path d="
M 121.00 128.00 
C 117.55 124.81 113.12 120.58 110.00 117.00
C 112.98 121.00 117.05 124.88 121.00 128.00 Z"/>
</g>
<g fill="None" fill-opacity="0.0" stroke="#01197E" stroke-opacity="0.74" stroke-width="0.3"><path d="
M 167.00 120.00 
C 162.60 120.70 158.66 120.74 154.00 120.00
C 156.69 120.99 158.29 121.89 162.00 122.00 C 165.71 122.11 166.99 120.00 167.00 120.00 Z"/>
</g>
<g fill="None" fill-opacity="0.0" stroke="#001470" stroke-opacity="0.60" stroke-width="0.3"><path d="
M 223.00 142.00 
C 224.92 141.37 225.50 140.46 225.00 138.00
C 225.00 138.00 225.00 137.50 225.00 137.00
C 225.00 128.03 227.33 122.13 218.00 120.00
C 218.71 122.96 222.28 121.30 224.00 123.00
C 221.97 126.51 227.14 139.81 223.00 142.00 Z"/>
</g>
<g fill="None" fill-opacity="0.0" stroke="#00346F" stroke-opacity="0.13" stroke-width="0.3"><path d="
M 348.00 128.00 
C 346.08 131.10 314.10 131.44 328.00 122.00
C 310.47 131.46 347.66 132.68 348.00 128.00 Z"/>
</g>
<g fill="None" fill-opacity="0.0" stroke="#00366B" stroke-opacity="0.09" stroke-width="0.3"><path d="
M 223.00 142.00 
C 221.67 142.44 219.41 142.00 218.00 142.00
C 217.50 142.00 216.50 141.97 216.00 142.00
C 218.02 142.26 230.25 144.56 225.00 138.00
C 225.50 140.46 224.92 141.37 223.00 142.00 Z"/>
</g>
<g fill="None" fill-opacity="0.0" stroke="#001B6A" stroke-opacity="0.42" stroke-width="0.3"><path d="
M 210.00 141.00 
C 211.75 141.41 213.57 142.15 216.00 142.00
C 216.50 141.97 217.50 142.00 218.00 142.00
C 215.36 141.50 212.65 141.08 210.00 141.00 Z"/>
</g>
<g fill="None" fill-opacity="0.0" stroke="#003B6F" stroke-opacity="0.08" stroke-width="0.3"><path d="
M 170.00 142.00 
C 164.37 142.31 158.64 142.00 153.00 142.00
C 157.88 144.08 165.05 142.80 170.00 142.00 Z"/>
</g>
<g fill="None" fill-opacity="0.0" stroke="#92DADA" stroke-opacity="0.02" stroke-width="0.3"><path d="
M 20.00 161.00 
C 22.29 161.00 24.72 160.76 27.00 161.00
C 28.04 161.11 30.30 160.94 31.00 162.00
C 29.97 158.56 21.93 159.58 20.00 161.00 Z"/>
</g>
<g fill="None" fill-opacity="0.0" stroke="#97E4DB" stroke-opacity="0.05" stroke-width="0.3"><path d="
M 31.00 163.00 
C 31.00 168.88 30.80 175.16 31.00 181.00 C 31.20 186.84 30.51 194.41 31.00 200.00 C 31.49 205.60 29.89 214.14 31.00 219.00 C 32.11 223.86 28.05 234.21 32.00 237.00
C 37.82 238.06 45.39 235.38 51.00 237.00 C 56.61 238.62 64.50 232.79 67.92 239.08 C 71.33 245.38 64.51 251.38 58.00 249.00 C 51.49 246.62 45.15 250.95 39.00 249.00 C 32.85 247.05 24.63 251.78 19.00 249.00
C 14.02 246.54 17.70 234.63 17.00 229.00 C 16.30 223.37 16.95 212.12 17.00 206.00 C 17.05 199.88 16.17 188.57 17.00 183.00 C 17.83 177.43 13.90 164.32 19.00 162.00
C 19.19 161.91 19.00 161.00 19.00 161.00
C 13.59 167.87 16.10 181.06 16.00 191.00 C 15.90 200.94 15.21 214.14 16.00 224.00 C 16.79 233.86 11.15 247.66 22.00 250.00 C 32.85 252.34 43.69 246.11 55.00 250.00 C 66.31 253.89 75.72 239.96 64.00 236.00 C 52.28 232.04 43.46 238.97 32.00 236.00
C 31.54 228.06 32.62 218.81 32.00 211.00 C 31.38 203.19 33.18 193.33 32.00 186.00 C 30.82 178.67 35.12 168.57 31.00 163.00 Z"/>
</g>
<g fill="None" fill-opacity="0.0" stroke="#C8F2F3" stroke-opacity="0.36" stroke-width="0.3"><path d="
M 19.00 162.00 
C 21.69 162.24 25.17 161.00 27.00 161.00
C 24.72 160.76 22.29 161.00 20.00 161.00
C 20.00 161.00 19.25 160.75 19.00 161.00
C 19.00 161.00 19.19 161.91 19.00 162.00 Z"/>
</g>
<g fill="None" fill-opacity="0.0" stroke="#C6F7F3" stroke-opacity="0.65" stroke-width="0.3"><path d="
M 19.00 162.00 
C 13.90 164.32 17.83 177.43 17.00 183.00 C 16.17 188.57 17.05 199.88 17.00 206.00 C 16.95 212.12 16.30 223.37 17.00 229.00 C 17.70 234.63 14.02 246.54 19.00 249.00
C 19.39 239.68 18.63 229.06 19.00 219.00 C 19.37 208.94 18.41 195.84 19.00 186.00 C 19.59 176.16 14.27 159.66 29.00 163.00
C 29.62 175.15 28.17 190.13 29.00 202.00 C 29.83 213.87 26.10 229.81 32.00 237.00
C 28.05 234.21 32.11 223.86 31.00 219.00 C 29.89 214.14 31.49 205.60 31.00 200.00 C 30.51 194.41 31.20 186.84 31.00 181.00 C 30.80 175.16 31.00 168.88 31.00 163.00
C 31.00 163.00 31.23 162.35 31.00 162.00
C 30.30 160.94 28.04 161.11 27.00 161.00
C 25.17 161.00 21.69 162.24 19.00 162.00 Z"/>
</g>
<g fill="None" fill-opacity="0.0" stroke="#CEFDF6" stroke-opacity="0.97" stroke-width="0.3"><path d="
M 19.00 249.00 
C 24.63 251.78 32.85 247.05 39.00 249.00 C 45.15 250.95 51.49 246.62 58.00 249.00 C 64.51 251.38 71.33 245.38 67.92 239.08 C 64.50 232.79 56.61 238.62 51.00 237.00 C 45.39 235.38 37.82 238.06 32.00 237.00
C 26.10 229.81 29.83 213.87 29.00 202.00 C 28.17 190.13 29.62 175.15 29.00 163.00
C 14.27 159.66 19.59 176.16 19.00 186.00 C 18.41 195.84 19.37 208.94 19.00 219.00 C 18.63 229.06 19.39 239.68 19.00 249.00 Z"/>
</g>
<g fill="None" fill-opacity="0.0" stroke="#C8FAF3" stroke-opacity="0.84" stroke-width="0.3"><path d="
M 121.00 250.00 
C 115.11 247.93 124.02 249.00 124.00 249.00
C 128.62 247.01 132.88 244.91 137.00 242.00
C 136.60 236.62 130.76 233.14 126.00 236.00
C 113.62 241.85 92.95 238.54 92.00 222.00
C 99.61 220.91 111.86 223.46 119.00 222.00 C 126.14 220.54 138.85 225.82 143.00 220.00
C 142.95 220.12 142.99 210.51 143.00 210.00
C 140.99 198.54 135.93 191.10 125.23 185.77 C 114.53 180.44 102.70 182.04 92.70 187.70 C 82.70 193.35 78.18 202.86 76.33 213.33 C 74.48 223.80 80.45 236.85 88.25 242.75 C 96.06 248.64 112.41 256.36 121.00 250.00
M 114.00 194.00 
C 121.73 196.25 123.55 196.84 128.77 204.23 C 133.99 211.62 123.97 213.30 116.00 212.00 C 108.03 210.70 99.06 212.97 91.00 212.00
C 90.27 204.12 97.42 197.81 104.00 195.00
C 105.17 191.08 111.97 193.41 114.00 194.00 Z"/>
</g>
<g fill="None" fill-opacity="0.0" stroke="#CAFBF4" stroke-opacity="0.88" stroke-width="0.3"><path d="
M 177.00 183.00 
C 167.72 186.28 158.44 195.21 154.00 204.00
C 151.88 209.74 151.56 215.61 152.00 222.00
C 152.50 225.06 154.80 229.76 156.00 233.00
C 160.69 241.70 168.56 249.29 179.00 250.00
C 182.83 250.26 187.17 250.35 191.00 250.00
C 196.61 250.19 200.88 246.35 205.00 243.00
C 203.95 251.47 218.40 253.22 220.00 246.00
C 219.17 247.67 217.09 237.86 218.00 234.00 C 218.91 230.14 217.57 222.65 218.00 218.00 C 218.43 213.35 217.78 206.97 218.00 202.00 C 218.22 197.03 217.83 191.06 218.00 186.00
C 214.67 186.00 211.33 186.00 208.00 186.00
C 208.09 188.45 208.23 191.61 206.00 193.00
C 204.45 192.28 207.64 188.77 205.00 188.00
C 204.18 189.65 192.31 182.47 188.00 182.00
C 188.66 182.24 189.56 184.49 190.00 185.00
C 187.00 185.00 184.00 185.00 181.00 185.00
C 180.47 183.72 181.97 183.14 182.00 182.00
C 180.60 182.17 178.44 182.65 177.00 183.00
M 189.00 196.00 
C 190.62 196.00 192.40 195.79 194.00 196.00
C 212.95 198.55 211.21 239.72 192.00 238.00
C 191.64 244.33 181.86 237.48 181.00 237.00
C 169.47 234.19 165.99 225.23 166.78 213.78 C 167.57 202.33 176.49 196.00 188.00 196.00
C 186.24 195.17 183.49 195.33 182.00 194.00
C 184.04 194.67 191.04 192.29 189.00 196.00 Z"/>
</g>
<g fill="None" fill-opacity="0.0" stroke="#BCF5F0" stroke-opacity="0.53" stroke-width="0.3"><path d="
M 188.00 182.00 
C 186.17 181.80 183.82 181.77 182.00 182.00
C 181.97 183.14 180.47 183.72 181.00 185.00
C 184.00 185.00 187.00 185.00 190.00 185.00
C 189.56 184.49 188.66 182.24 188.00 182.00 Z"/>
</g>
<g fill="None" fill-opacity="0.0" stroke="#93E5DB" stroke-opacity="0.09" stroke-width="0.3"><path d="
M 233.00 200.00 
C 233.00 199.96 234.00 200.00 234.00 200.00
C 234.00 197.67 233.96 195.33 234.00 193.00
C 234.13 185.81 235.24 183.33 243.00 184.00 C 250.76 184.67 244.61 193.38 248.00 198.00
C 252.09 190.51 260.01 185.72 267.00 182.00
C 259.76 184.24 252.50 188.80 249.00 196.00
C 248.39 188.77 248.18 181.93 239.00 183.00 C 229.83 184.07 233.00 192.79 233.00 200.00 Z"/>
</g>
<g fill="None" fill-opacity="0.0" stroke="#CAFBF4" stroke-opacity="0.88" stroke-width="0.3"><path d="
M 234.00 193.00 
C 234.61 200.90 234.35 210.48 235.00 219.00 C 235.65 227.52 233.05 238.52 234.00 246.00
C 237.23 254.75 250.49 250.04 248.00 241.00 C 245.51 231.96 249.22 224.05 249.00 216.00 C 248.79 207.95 254.29 205.19 259.00 200.00
C 260.43 198.42 262.73 194.85 265.03 195.03 C 267.32 195.20 274.30 192.17 273.00 196.00
C 280.41 192.04 276.07 180.73 267.00 182.00
C 260.01 185.72 252.09 190.51 248.00 198.00
C 244.61 193.38 250.76 184.67 243.00 184.00 C 235.24 183.33 234.13 185.81 234.00 193.00 Z"/>
</g>
<g fill="None" fill-opacity="0.0" stroke="#C9FBF3" stroke-opacity="0.86" stroke-width="0.3"><path d="
M 300.00 191.00 
C 299.90 192.66 300.08 194.34 300.00 196.00
C 296.32 194.26 298.67 189.21 298.00 186.00
C 294.67 186.00 291.33 186.00 288.00 186.00
C 288.72 196.99 287.03 211.35 288.00 222.00 C 288.97 232.65 282.41 250.93 298.00 248.00
C 299.30 235.65 295.38 220.76 300.00 210.00
C 300.00 206.85 301.30 206.97 303.00 205.00
C 308.16 199.02 311.84 196.15 320.00 196.00
C 319.45 195.89 317.37 194.70 317.00 194.00
C 319.18 194.26 326.55 192.93 325.00 196.00
C 330.24 200.03 333.83 204.04 333.00 212.00 C 332.17 219.96 334.28 227.43 333.00 236.00 C 331.72 244.57 333.46 251.75 343.00 250.00 C 352.53 248.25 347.40 238.15 348.00 231.00 C 348.60 223.85 349.51 214.91 347.00 209.00
C 346.92 210.55 347.02 212.62 345.00 213.00
C 345.08 210.92 344.31 207.72 347.00 207.00
C 349.19 183.16 313.36 173.21 302.00 193.00
C 301.40 192.79 300.14 191.44 300.00 191.00 Z"/>
</g>
<g fill="None" fill-opacity="0.0" stroke="#C8FBF3" stroke-opacity="0.82" stroke-width="0.3"><path d="
M 358.00 209.00 
C 357.99 211.47 361.40 222.10 358.00 224.00
C 360.35 238.42 371.23 247.15 385.00 250.00
C 390.42 250.49 398.69 250.50 403.00 250.00
C 409.01 248.94 416.82 246.37 419.00 240.00
C 413.53 230.98 407.29 236.17 400.00 238.00
C 396.72 240.01 393.53 242.68 388.00 241.00
C 387.47 239.72 388.97 239.14 389.00 238.00
C 380.37 237.82 373.34 230.05 372.00 222.00
C 386.90 222.45 401.02 221.40 416.00 222.00 C 430.98 222.60 422.73 201.18 417.00 194.00
C 416.58 193.64 411.07 189.07 411.00 189.00
C 394.12 178.44 359.08 182.59 358.00 209.00
M 395.00 194.00 
C 395.30 194.30 395.76 195.86 396.00 196.00
C 402.83 197.61 410.61 202.85 410.00 211.00
C 397.67 211.00 385.33 211.00 373.00 211.00
C 372.89 203.66 379.85 196.64 387.00 196.00
C 388.96 194.91 391.18 190.26 395.00 194.00 Z"/>
</g>
<g fill="None" fill-opacity="0.0" stroke="#C9FBF4" stroke-opacity="0.81" stroke-width="0.3"><path d="
M 449.00 186.00 
C 446.26 183.34 439.93 186.17 437.00 184.00
C 436.50 184.00 436.00 184.00 436.00 184.00
C 430.06 187.21 436.02 198.49 435.00 204.00 C 433.98 209.51 436.19 219.95 434.93 225.93 C 433.67 231.90 433.69 240.33 434.68 246.32 C 435.67 252.32 448.40 251.62 450.00 247.00
C 450.44 245.31 448.76 239.88 449.00 237.00 C 449.24 234.12 449.78 229.31 450.00 227.00
C 450.00 217.46 450.03 209.97 457.00 203.00
C 455.42 204.35 453.68 205.86 452.00 207.00
C 454.45 202.31 460.23 194.90 466.00 197.00
C 469.92 197.66 473.27 195.99 477.00 196.00
C 481.10 185.69 473.61 179.53 465.08 183.08 C 456.54 186.63 455.10 189.42 450.00 196.00
C 450.03 192.54 450.39 188.80 449.00 186.00 Z"/>
</g>
<g fill="None" fill-opacity="0.0" stroke="#98EDDF" stroke-opacity="0.13" stroke-width="0.3"><path d="
M 154.00 204.00 
C 158.44 195.21 167.72 186.28 177.00 183.00
C 166.40 185.56 157.69 194.00 154.00 204.00 Z"/>
</g>
<g fill="None" fill-opacity="0.0" stroke="#8FE9D3" stroke-opacity="0.06" stroke-width="0.3"><path d="
M 206.00 186.00 
C 208.16 183.36 217.52 182.52 220.00 185.00
C 217.33 181.07 207.76 182.17 206.00 186.00 Z"/>
</g>
<g fill="None" fill-opacity="0.0" stroke="#8EE7DC" stroke-opacity="0.05" stroke-width="0.3"><path d="
M 285.00 204.00 
C 285.00 203.96 286.00 204.00 286.00 204.00
C 286.00 202.67 286.00 201.33 286.00 200.00
C 286.00 196.52 285.34 188.22 286.33 185.33 C 287.32 182.44 299.03 183.34 300.00 185.00
C 298.91 182.31 286.46 180.65 285.33 185.33 C 284.20 190.01 285.00 198.85 285.00 204.00 Z"/>
</g>
<g fill="None" fill-opacity="0.0" stroke="#95F1D6" stroke-opacity="0.04" stroke-width="0.3"><path d="
M 436.00 184.00 
C 436.00 184.00 436.50 184.00 437.00 184.00
C 439.98 184.00 444.14 183.23 447.00 184.00
C 444.76 182.89 438.15 181.76 436.00 184.00 Z"/>
</g>
<g fill="None" fill-opacity="0.0" stroke="#C9FAF6" stroke-opacity="0.59" stroke-width="0.3"><path d="
M 206.00 186.00 
C 205.82 186.39 205.01 187.58 205.00 188.00
C 207.64 188.77 204.45 192.28 206.00 193.00
C 208.23 191.61 208.09 188.45 208.00 186.00
C 211.33 186.00 214.67 186.00 218.00 186.00
C 217.83 191.06 218.22 197.03 218.00 202.00 C 217.78 206.97 218.43 213.35 218.00 218.00 C 217.57 222.65 218.91 230.14 218.00 234.00 C 217.09 237.86 219.17 247.67 220.00 246.00
C 222.00 236.97 221.34 222.82 220.00 214.00 C 218.66 205.18 224.30 191.33 220.00 185.00
C 217.52 182.52 208.16 183.36 206.00 186.00 Z"/>
</g>
<g fill="None" fill-opacity="0.0" stroke="#C7FAF6" stroke-opacity="0.67" stroke-width="0.3"><path d="
M 286.00 200.00 
C 286.58 205.98 288.20 215.46 287.00 222.00 C 285.80 228.54 289.77 238.90 286.00 244.00
C 286.00 244.50 286.00 245.00 286.00 245.00
C 286.09 246.20 287.77 247.50 287.00 249.00
C 291.31 248.27 297.29 250.81 300.00 247.00
C 301.75 241.81 299.29 234.46 300.00 229.00 C 300.71 223.54 300.00 217.52 300.00 212.00
C 300.00 211.50 300.00 210.50 300.00 210.00
C 295.38 220.76 299.30 235.65 298.00 248.00
C 282.41 250.93 288.97 232.65 288.00 222.00 C 287.03 211.35 288.72 196.99 288.00 186.00
C 291.33 186.00 294.67 186.00 298.00 186.00
C 298.67 189.21 296.32 194.26 300.00 196.00
C 300.08 194.34 299.90 192.66 300.00 191.00
C 300.09 189.51 300.55 186.37 300.00 185.00
C 299.03 183.34 287.32 182.44 286.33 185.33 C 285.34 188.22 286.00 196.52 286.00 200.00 Z"/>
</g>
<g fill="None" fill-opacity="0.0" stroke="#CBFEF9" stroke-opacity="0.47" stroke-width="0.3"><path d="
M 449.00 186.00 
C 448.02 184.03 448.90 184.95 447.00 184.00
C 444.14 183.23 439.98 184.00 437.00 184.00
C 439.93 186.17 446.26 183.34 449.00 186.00 Z"/>
</g>
<g fill="None" fill-opacity="0.0" stroke="#AAF2EB" stroke-opacity="0.20" stroke-width="0.3"><path d="
M 417.00 194.00 
C 415.11 191.63 413.54 190.59 411.00 189.00
C 411.07 189.07 416.58 193.64 417.00 194.00 Z"/>
</g>
<g fill="None" fill-opacity="0.0" stroke="#B4F3EE" stroke-opacity="0.47" stroke-width="0.3"><path d="
M 104.00 195.00 
C 103.86 195.46 104.00 196.00 104.00 196.00
C 107.42 196.23 110.40 194.87 114.00 195.00
C 113.76 194.81 114.00 194.00 114.00 194.00
C 111.97 193.41 105.17 191.08 104.00 195.00 Z"/>
</g>
<g fill="None" fill-opacity="0.0" stroke="#BCF6F0" stroke-opacity="0.42" stroke-width="0.3"><path d="
M 234.00 200.00 
C 234.00 215.33 234.00 230.67 234.00 246.00
C 233.05 238.52 235.65 227.52 235.00 219.00 C 234.35 210.48 234.61 200.90 234.00 193.00
C 233.96 195.33 234.00 197.67 234.00 200.00 Z"/>
</g>
<g fill="None" fill-opacity="0.0" stroke="#C0FCF0" stroke-opacity="0.61" stroke-width="0.3"><path d="
M 387.00 196.00 
C 387.57 195.83 388.49 195.28 389.00 195.00
C 390.18 194.35 393.29 193.09 395.00 194.00
C 391.18 190.26 388.96 194.91 387.00 196.00 Z"/>
</g>
<g fill="None" fill-opacity="0.0" stroke="#9CEBDE" stroke-opacity="0.13" stroke-width="0.3"><path d="
M 114.00 195.00 
C 119.30 199.10 131.40 200.42 129.00 211.00
C 116.67 211.00 104.33 211.00 92.00 211.00
C 91.61 203.80 98.19 198.74 104.00 196.00
C 104.00 196.00 103.86 195.46 104.00 195.00
C 97.42 197.81 90.27 204.12 91.00 212.00
C 99.06 212.97 108.03 210.70 116.00 212.00 C 123.97 213.30 133.99 211.62 128.77 204.23 C 123.55 196.84 121.73 196.25 114.00 194.00
C 114.00 194.00 113.76 194.81 114.00 195.00 Z"/>
</g>
<g fill="None" fill-opacity="0.0" stroke="#BFEFEB" stroke-opacity="0.42" stroke-width="0.3"><path d="
M 188.00 196.00 
C 188.50 196.00 189.00 196.00 189.00 196.00
C 191.04 192.29 184.04 194.67 182.00 194.00
C 183.49 195.33 186.24 195.17 188.00 196.00 Z"/>
</g>
<g fill="None" fill-opacity="0.0" stroke="#B7F3EA" stroke-opacity="0.44" stroke-width="0.3"><path d="
M 259.00 200.00 
C 263.49 197.25 268.65 198.32 273.00 196.00
C 274.30 192.17 267.32 195.20 265.03 195.03 C 262.73 194.85 260.43 198.42 259.00 200.00 Z"/>
</g>
<g fill="None" fill-opacity="0.0" stroke="#B9EFE7" stroke-opacity="0.32" stroke-width="0.3"><path d="
M 320.00 196.00 
C 321.52 195.97 323.52 195.68 325.00 196.00
C 326.55 192.93 319.18 194.26 317.00 194.00
C 317.37 194.70 319.45 195.89 320.00 196.00 Z"/>
</g>
<g fill="None" fill-opacity="0.0" stroke="#B5F8E8" stroke-opacity="0.16" stroke-width="0.3"><path d="
M 389.00 195.00 
C 391.46 194.47 393.76 195.47 396.00 196.00
C 395.76 195.86 395.30 194.30 395.00 194.00
C 393.29 193.09 390.18 194.35 389.00 195.00 Z"/>
</g>
<g fill="None" fill-opacity="0.0" stroke="#000000" stroke-opacity="0.00" stroke-width="0.3"><path d="
M 104.00 196.00 
C 98.19 198.74 91.61 203.80 92.00 211.00
C 104.33 211.00 116.67 211.00 129.00 211.00
C 131.40 200.42 119.30 199.10 114.00 195.00
C 110.40 194.87 107.42 196.23 104.00 196.00 Z"/>
</g>
<g fill="None" fill-opacity="0.0" stroke="#000000" stroke-opacity="0.00" stroke-width="0.3"><path d="
M 387.00 196.00 
C 379.85 196.64 372.89 203.66 373.00 211.00
C 385.33 211.00 397.67 211.00 410.00 211.00
C 410.61 202.85 402.83 197.61 396.00 196.00
C 393.76 195.47 391.46 194.47 389.00 195.00
C 388.49 195.28 387.57 195.83 387.00 196.00 Z"/>
</g>
<g fill="None" fill-opacity="0.0" stroke="#000000" stroke-opacity="0.00" stroke-width="0.3"><path d="
M 181.00 237.00 
C 184.34 237.81 187.37 238.00 191.00 238.00
C 197.08 233.53 206.89 228.51 205.99 218.99 C 205.09 209.47 204.41 198.27 194.00 196.00
C 192.40 195.79 190.62 196.00 189.00 196.00
C 189.00 196.00 188.50 196.00 188.00 196.00
C 176.49 196.00 167.57 202.33 166.78 213.78 C 165.99 225.23 169.47 234.19 181.00 237.00 Z"/>
</g>
<g fill="None" fill-opacity="0.0" stroke="#9DEDE0" stroke-opacity="0.14" stroke-width="0.3"><path d="
M 191.00 238.00 
C 191.50 238.00 192.00 238.00 192.00 238.00
C 211.21 239.72 212.95 198.55 194.00 196.00
C 204.41 198.27 205.09 209.47 205.99 218.99 C 206.89 228.51 197.08 233.53 191.00 238.00 Z"/>
</g>
<g fill="None" fill-opacity="0.0" stroke="#B8F2EB" stroke-opacity="0.41" stroke-width="0.3"><path d="
M 457.00 203.00 
C 459.53 200.84 462.96 197.72 466.00 197.00
C 460.23 194.90 454.45 202.31 452.00 207.00
C 453.68 205.86 455.42 204.35 457.00 203.00 Z"/>
</g>
<g fill="None" fill-opacity="0.0" stroke="#8FFCD3" stroke-opacity="0.02" stroke-width="0.3"><path d="
M 234.00 246.00 
C 234.00 230.67 234.00 215.33 234.00 200.00
C 234.00 200.00 233.00 199.96 233.00 200.00
C 233.00 213.50 229.50 233.82 234.00 246.00 Z"/>
</g>
<g fill="None" fill-opacity="0.0" stroke="#C2FBF6" stroke-opacity="0.47" stroke-width="0.3"><path d="
M 286.00 204.00 
C 286.00 217.33 286.00 230.67 286.00 244.00
C 289.77 238.90 285.80 228.54 287.00 222.00 C 288.20 215.46 286.58 205.98 286.00 200.00
C 286.00 201.33 286.00 202.67 286.00 204.00 Z"/>
</g>
<g fill="None" fill-opacity="0.0" stroke="#9AFFD2" stroke-opacity="0.02" stroke-width="0.3"><path d="
M 285.00 245.00 
C 285.00 245.04 286.00 245.00 286.00 245.00
C 286.00 245.00 286.00 244.50 286.00 244.00
C 286.00 230.67 286.00 217.33 286.00 204.00
C 286.00 204.00 285.00 203.96 285.00 204.00
C 285.00 217.48 283.78 231.59 285.00 245.00 Z"/>
</g>
<g fill="None" fill-opacity="0.0" stroke="#97ECE2" stroke-opacity="0.13" stroke-width="0.3"><path d="
M 300.00 210.00 
C 300.00 210.50 300.00 211.50 300.00 212.00
C 300.28 210.28 301.87 206.85 303.00 205.00
C 301.30 206.97 300.00 206.85 300.00 210.00 Z"/>
</g>
<g fill="None" fill-opacity="0.0" stroke="#C9F8F5" stroke-opacity="0.57" stroke-width="0.3"><path d="
M 347.00 209.00 
C 346.82 208.58 346.97 207.50 347.00 207.00
C 344.31 207.72 345.08 210.92 345.00 213.00
C 347.02 212.62 346.92 210.55 347.00 209.00 Z"/>
</g>
<g fill="None" fill-opacity="0.0" stroke="#CCFEFB" stroke-opacity="0.41" stroke-width="0.3"><path d="
M 358.00 211.00 
C 358.00 215.22 358.06 219.48 357.00 223.00
C 357.05 223.35 357.97 223.79 358.00 224.00
C 361.40 222.10 357.99 211.47 358.00 209.00
C 357.98 209.50 358.00 210.50 358.00 211.00 Z"/>
</g>
<g fill="None" fill-opacity="0.0" stroke="#C1F8F0" stroke-opacity="0.25" stroke-width="0.3"><path d="
M 143.00 220.00 
C 145.21 216.91 143.55 213.13 143.00 210.00
C 142.99 210.51 142.95 220.12 143.00 220.00 Z"/>
</g>
<g fill="None" fill-opacity="0.0" stroke="#99FFEB" stroke-opacity="0.03" stroke-width="0.3"><path d="
M 357.00 223.00 
C 358.06 219.48 358.00 215.22 358.00 211.00
C 356.71 214.03 356.45 219.21 357.00 223.00 Z"/>
</g>
<g fill="None" fill-opacity="0.0" stroke="#95EFE8" stroke-opacity="0.09" stroke-width="0.3"><path d="
M 156.00 233.00 
C 154.80 229.76 152.50 225.06 152.00 222.00
C 152.32 226.64 153.99 229.27 156.00 233.00 Z"/>
</g>
<g fill="None" fill-opacity="0.0" stroke="#AAFFF0" stroke-opacity="0.02" stroke-width="0.3"><path d="
M 450.00 247.00 
C 451.81 241.77 450.00 232.59 450.00 227.00
C 449.78 229.31 449.24 234.12 449.00 237.00 C 448.76 239.88 450.44 245.31 450.00 247.00 Z"/>
</g>
<g fill="None" fill-opacity="0.0" stroke="#A3F3E5" stroke-opacity="0.14" stroke-width="0.3"><path d="
M 126.00 236.00 
C 130.76 233.14 136.60 236.62 137.00 242.00
C 132.88 244.91 128.62 247.01 124.00 249.00
C 122.92 249.46 122.90 249.40 122.00 250.00
C 127.92 250.45 141.37 243.29 135.75 237.25 C 130.13 231.20 131.01 234.13 126.00 236.00 Z"/>
</g>
<g fill="None" fill-opacity="0.0" stroke="#B8F4E9" stroke-opacity="0.41" stroke-width="0.3"><path d="
M 192.00 238.00 
C 192.00 238.00 191.50 238.00 191.00 238.00
C 187.37 238.00 184.34 237.81 181.00 237.00
C 181.86 237.48 191.64 244.33 192.00 238.00 Z"/>
</g>
<g fill="None" fill-opacity="0.0" stroke="#BCFDEF" stroke-opacity="0.49" stroke-width="0.3"><path d="
M 400.00 238.00 
C 396.03 239.00 392.82 238.78 389.00 238.00
C 388.97 239.14 387.47 239.72 388.00 241.00
C 393.53 242.68 396.72 240.01 400.00 238.00 Z"/>
</g>
<g fill="None" fill-opacity="0.0" stroke="#A2F1E8" stroke-opacity="0.11" stroke-width="0.3"><path d="
M 300.00 247.00 
C 297.29 250.81 291.31 248.27 287.00 249.00
C 287.77 247.50 286.09 246.20 286.00 245.00
C 286.00 245.00 285.00 245.04 285.00 245.00
C 285.93 251.49 298.11 252.61 300.00 247.00 Z"/>
</g>
<g fill="None" fill-opacity="0.0" stroke="#C5F8F7" stroke-opacity="0.64" stroke-width="0.3"><path d="
M 121.00 250.00 
C 121.00 250.00 121.50 249.96 122.00 250.00
C 122.90 249.40 122.92 249.46 124.00 249.00
C 124.02 249.00 115.11 247.93 121.00 250.00 Z"/>
</g>
<g fill="None" fill-opacity="0.0" stroke="#9CF1DF" stroke-opacity="0.11" stroke-width="0.3"><path d="
M 385.00 250.00 
C 390.56 251.15 397.04 251.30 403.00 250.00
C 398.69 250.50 390.42 250.49 385.00 250.00 Z"/>
</g>
<g fill="None" fill-opacity="0.0" stroke="#92E5D3" stroke-opacity="0.09" stroke-width="0.3"><path d="
M 191.00 250.00 
C 187.17 250.35 182.83 250.26 179.00 250.00
C 182.99 250.71 186.93 250.84 191.00 250.00 Z"/>
</g>
<g fill="#000000" fill-opacity="0.00" stroke="None">
<path d="
M 0.00 264.00 
L 488.00 264.00
L 488.00 0.00
L 0.00 0.00
L 0.00 264.00
M 167.00 14.00 
C 167.50 14.00 168.00 14.00 168.00 14.00
C 180.70 12.63 196.57 22.08 205.75 30.25 C 214.93 38.42 225.85 53.28 225.00 66.00
C 224.97 66.50 225.00 67.00 225.00 67.00
C 228.48 71.71 225.65 84.94 225.00 90.00
C 225.26 92.45 224.42 94.25 224.00 96.00
C 224.13 97.75 223.54 98.49 223.00 100.00
C 221.48 104.26 219.45 108.41 217.00 112.00
C 216.69 112.45 216.33 113.69 216.00 114.00
C 215.12 115.22 213.86 116.37 214.00 118.00
C 226.24 115.69 228.58 128.19 225.00 137.00
C 225.00 137.50 225.00 138.00 225.00 138.00
C 230.25 144.56 218.02 142.26 216.00 142.00
C 213.57 142.15 211.75 141.41 210.00 141.00
C 203.85 139.56 196.94 133.75 190.78 135.78 C 184.62 137.81 177.16 141.61 170.00 142.00
C 165.05 142.80 157.88 144.08 153.00 142.00
C 152.50 142.00 151.50 142.01 151.00 142.00
C 128.93 141.43 98.88 116.05 98.00 93.00
C 97.98 92.50 98.00 92.00 98.00 92.00
C 88.94 75.42 99.61 52.44 109.25 38.25 C 118.90 24.06 137.85 16.82 154.00 14.00
C 154.18 13.64 155.63 13.08 156.00 13.00
C 158.92 12.38 164.90 12.45 167.00 14.00
M 291.00 20.00 
C 293.68 20.89 292.58 21.05 294.00 23.00
C 299.62 30.71 303.71 42.08 309.31 49.69 C 314.90 57.31 317.83 71.45 324.92 77.08 C 332.01 82.71 347.69 71.63 356.68 69.68 C 365.66 67.73 379.76 61.96 389.00 59.00
C 391.42 56.90 395.06 56.67 398.00 56.00
C 406.06 53.10 415.34 47.07 424.00 48.00
C 416.94 52.68 408.59 55.89 401.00 60.00
C 400.53 60.13 399.49 59.92 399.00 60.00
C 372.48 73.00 346.04 86.98 319.00 99.00
C 317.94 100.50 315.72 101.05 314.00 101.00
C 307.93 107.94 294.68 110.87 286.31 115.31 C 277.93 119.74 266.33 126.81 257.00 129.00
C 256.53 129.11 256.00 129.00 256.00 129.00
C 251.32 136.49 235.06 137.89 228.00 142.00
C 232.59 131.41 237.59 121.03 242.77 110.77 C 247.95 100.51 252.93 89.37 258.31 79.31 C 263.68 69.24 268.02 57.34 273.77 47.77 C 279.52 38.20 282.28 23.31 291.00 20.00
M 348.00 128.00 
C 347.66 132.68 310.47 131.46 328.00 122.00
C 332.55 119.55 337.62 116.36 343.00 116.00
C 343.42 120.47 347.85 123.53 348.00 128.00
M 31.00 162.00 
C 31.23 162.35 31.00 163.00 31.00 163.00
C 35.12 168.57 30.82 178.67 32.00 186.00 C 33.18 193.33 31.38 203.19 32.00 211.00 C 32.62 218.81 31.54 228.06 32.00 236.00
C 43.46 238.97 52.28 232.04 64.00 236.00 C 75.72 239.96 66.31 253.89 55.00 250.00 C 43.69 246.11 32.85 252.34 22.00 250.00 C 11.15 247.66 16.79 233.86 16.00 224.00 C 15.21 214.14 15.90 200.94 16.00 191.00 C 16.10 181.06 13.59 167.87 19.00 161.00
C 19.25 160.75 20.00 161.00 20.00 161.00
C 21.93 159.58 29.97 158.56 31.00 162.00
M 143.00 210.00 
C 143.55 213.13 145.21 216.91 143.00 220.00
C 138.85 225.82 126.14 220.54 119.00 222.00 C 111.86 223.46 99.61 220.91 92.00 222.00
C 92.95 238.54 113.62 241.85 126.00 236.00
C 131.01 234.13 130.13 231.20 135.75 237.25 C 141.37 243.29 127.92 250.45 122.00 250.00
C 121.50 249.96 121.00 250.00 121.00 250.00
C 112.41 256.36 96.06 248.64 88.25 242.75 C 80.45 236.85 74.48 223.80 76.33 213.33 C 78.18 202.86 82.70 193.35 92.70 187.70 C 102.70 182.04 114.53 180.44 125.23 185.77 C 135.93 191.10 140.99 198.54 143.00 210.00
M 205.00 188.00 
C 205.01 187.58 205.82 186.39 206.00 186.00
C 207.76 182.17 217.33 181.07 220.00 185.00
C 224.30 191.33 218.66 205.18 220.00 214.00 C 221.34 222.82 222.00 236.97 220.00 246.00
C 218.40 253.22 203.95 251.47 205.00 243.00
C 200.88 246.35 196.61 250.19 191.00 250.00
C 186.93 250.84 182.99 250.71 179.00 250.00
C 168.56 249.29 160.69 241.70 156.00 233.00
C 153.99 229.27 152.32 226.64 152.00 222.00
C 151.56 215.61 151.88 209.74 154.00 204.00
C 157.69 194.00 166.40 185.56 177.00 183.00
C 178.44 182.65 180.60 182.17 182.00 182.00
C 183.82 181.77 186.17 181.80 188.00 182.00
C 192.31 182.47 204.18 189.65 205.00 188.00
M 273.00 196.00 
C 268.65 198.32 263.49 197.25 259.00 200.00
C 254.29 205.19 248.79 207.95 249.00 216.00 C 249.22 224.05 245.51 231.96 248.00 241.00 C 250.49 250.04 237.23 254.75 234.00 246.00
C 229.50 233.82 233.00 213.50 233.00 200.00
C 233.00 192.79 229.83 184.07 239.00 183.00 C 248.18 181.93 248.39 188.77 249.00 196.00
C 252.50 188.80 259.76 184.24 267.00 182.00
C 276.07 180.73 280.41 192.04 273.00 196.00
M 347.00 207.00 
C 346.97 207.50 346.82 208.58 347.00 209.00
C 349.51 214.91 348.60 223.85 348.00 231.00 C 347.40 238.15 352.53 248.25 343.00 250.00 C 333.46 251.75 331.72 244.57 333.00 236.00 C 334.28 227.43 332.17 219.96 333.00 212.00 C 333.83 204.04 330.24 200.03 325.00 196.00
C 323.52 195.68 321.52 195.97 320.00 196.00
C 311.84 196.15 308.16 199.02 303.00 205.00
C 301.87 206.85 300.28 210.28 300.00 212.00
C 300.00 217.52 300.71 223.54 300.00 229.00 C 299.29 234.46 301.75 241.81 300.00 247.00
C 298.11 252.61 285.93 251.49 285.00 245.00
C 283.78 231.59 285.00 217.48 285.00 204.00
C 285.00 198.85 284.20 190.01 285.33 185.33 C 286.46 180.65 298.91 182.31 300.00 185.00
C 300.55 186.37 300.09 189.51 300.00 191.00
C 300.14 191.44 301.40 192.79 302.00 193.00
C 313.36 173.21 349.19 183.16 347.00 207.00
M 411.00 189.00 
C 413.54 190.59 415.11 191.63 417.00 194.00
C 422.73 201.18 430.98 222.60 416.00 222.00 C 401.02 221.40 386.90 222.45 372.00 222.00
C 373.34 230.05 380.37 237.82 389.00 238.00
C 392.82 238.78 396.03 239.00 400.00 238.00
C 407.29 236.17 413.53 230.98 419.00 240.00
C 416.82 246.37 409.01 248.94 403.00 250.00
C 397.04 251.30 390.56 251.15 385.00 250.00
C 371.23 247.15 360.35 238.42 358.00 224.00
C 357.97 223.79 357.05 223.35 357.00 223.00
C 356.45 219.21 356.71 214.03 358.00 211.00
C 358.00 210.50 357.98 209.50 358.00 209.00
C 359.08 182.59 394.12 178.44 411.00 189.00
M 466.00 197.00 
C 462.96 197.72 459.53 200.84 457.00 203.00
C 450.03 209.97 450.00 217.46 450.00 227.00
C 450.00 232.59 451.81 241.77 450.00 247.00
C 448.40 251.62 435.67 252.32 434.68 246.32 C 433.69 240.33 433.67 231.90 434.93 225.93 C 436.19 219.95 433.98 209.51 435.00 204.00 C 436.02 198.49 430.06 187.21 436.00 184.00
C 438.15 181.76 444.76 182.89 447.00 184.00
C 448.90 184.95 448.02 184.03 449.00 186.00
C 450.39 188.80 450.03 192.54 450.00 196.00
C 455.10 189.42 456.54 186.63 465.08 183.08 C 473.61 179.53 481.10 185.69 477.00 196.00
C 473.27 195.99 469.92 197.66 466.00 197.00 Z"/>
</g>
<g fill="#002B84" fill-opacity="0.27" stroke="None">
<path d="
M 154.00 14.00 
C 153.80 14.40 154.00 15.00 154.00 15.00
C 158.55 14.69 163.45 14.75 168.00 15.00
C 167.99 15.00 168.00 14.00 168.00 14.00
C 168.00 14.00 167.50 14.00 167.00 14.00
C 163.48 14.00 158.71 13.02 156.00 13.00
C 155.63 13.08 154.18 13.64 154.00 14.00 Z"/>
</g>
<g fill="#015183" fill-opacity="0.03" stroke="None">
<path d="
M 167.00 14.00 
C 164.90 12.45 158.92 12.38 156.00 13.00
C 158.71 13.02 163.48 14.00 167.00 14.00 Z"/>
</g>
<g fill="#004680" fill-opacity="0.12" stroke="None">
<path d="
M 98.00 92.00 
C 98.64 82.50 95.17 70.02 98.98 60.98 C 102.78 51.93 104.96 45.66 111.00 38.00
C 113.65 34.65 116.82 31.72 120.00 29.00
C 129.23 21.11 141.98 15.82 154.00 15.00
C 154.00 15.00 153.80 14.40 154.00 14.00
C 137.85 16.82 118.90 24.06 109.25 38.25 C 99.61 52.44 88.94 75.42 98.00 92.00 Z"/>
</g>
<g fill="#014478" fill-opacity="0.12" stroke="None">
<path d="
M 168.00 15.00 
C 181.85 15.75 194.56 22.08 205.00 31.00
C 208.58 34.06 211.39 37.19 214.00 41.00
C 218.83 48.04 222.98 55.45 224.00 64.00
C 224.06 64.49 224.00 65.50 224.00 66.00
C 224.34 66.23 225.00 66.00 225.00 66.00
C 225.85 53.28 214.93 38.42 205.75 30.25 C 196.57 22.08 180.70 12.63 168.00 14.00
C 168.00 14.00 167.99 15.00 168.00 15.00 Z"/>
</g>
<g fill="#011B8F" fill-opacity="0.96" stroke="None">
<path d="
M 120.00 29.00 
C 117.14 31.86 113.69 35.09 111.00 38.00
C 104.96 45.66 102.78 51.93 98.98 60.98 C 95.17 70.02 98.64 82.50 98.00 92.00
C 98.00 92.00 97.98 92.50 98.00 93.00
C 103.12 99.30 104.69 109.86 110.00 117.00
C 113.12 120.58 117.55 124.81 121.00 128.00
C 130.22 135.28 140.59 138.37 151.00 142.00
C 151.50 142.01 152.50 142.00 153.00 142.00
C 158.64 142.00 164.37 142.31 170.00 142.00
C 177.16 141.61 184.62 137.81 190.78 135.78 C 196.94 133.75 203.85 139.56 210.00 141.00
C 212.65 141.08 215.36 141.50 218.00 142.00
C 219.41 142.00 221.67 142.44 223.00 142.00
C 227.14 139.81 221.97 126.51 224.00 123.00
C 222.28 121.30 218.71 122.96 218.00 120.00
C 217.23 119.82 213.43 119.31 213.00 119.00
C 209.47 116.44 216.98 112.02 217.00 112.00
C 219.45 108.41 221.48 104.26 223.00 100.00
C 222.94 101.43 219.33 96.16 224.00 95.00
C 220.72 85.74 223.84 72.96 224.00 64.00
C 222.98 55.45 218.83 48.04 214.00 41.00
C 211.18 37.76 208.07 34.07 205.00 31.00
C 194.56 22.08 181.85 15.75 168.00 15.00
C 163.45 14.75 158.55 14.69 154.00 15.00
C 141.98 15.82 129.23 21.11 120.00 29.00
M 172.00 38.00 
C 172.50 37.97 173.00 38.00 173.00 38.00
C 177.83 38.18 184.08 41.44 188.00 44.00
C 190.71 45.76 193.17 48.44 195.00 51.00
C 197.76 54.87 201.90 61.16 202.00 66.00
C 202.01 66.50 202.00 67.00 202.00 67.00
C 203.57 68.94 203.91 71.31 204.00 74.00
C 204.52 76.90 204.46 79.18 204.00 82.00
C 204.25 88.56 200.62 95.26 198.00 101.00
C 196.08 105.21 191.83 109.16 188.00 112.00
C 181.60 116.76 174.70 118.77 167.00 120.00
C 166.99 120.00 165.71 122.11 162.00 122.00 C 158.29 121.89 156.69 120.99 154.00 120.00
C 131.29 116.39 117.05 95.76 119.00 73.00
C 118.75 68.74 118.91 68.82 121.00 65.00
C 123.79 56.74 128.59 50.99 135.00 45.00
C 138.45 41.78 141.48 39.86 145.00 39.00
C 152.62 35.94 164.65 33.98 172.00 38.00 Z"/>
</g>
<g fill="#003B76" fill-opacity="0.13" stroke="None">
<path d="
M 256.00 129.00 
C 247.11 132.48 238.93 137.70 230.00 141.00
C 247.58 101.16 268.52 62.62 287.00 23.00
C 288.08 21.52 288.87 19.86 291.00 20.00
C 282.28 23.31 279.52 38.20 273.77 47.77 C 268.02 57.34 263.68 69.24 258.31 79.31 C 252.93 89.37 247.95 100.51 242.77 110.77 C 237.59 121.03 232.59 131.41 228.00 142.00
C 235.06 137.89 251.32 136.49 256.00 129.00 Z"/>
</g>
<g fill="#002973" fill-opacity="0.29" stroke="None">
<path d="
M 287.00 23.00 
C 289.37 20.72 291.66 20.71 294.00 23.00
C 292.58 21.05 293.68 20.89 291.00 20.00
C 288.87 19.86 288.08 21.52 287.00 23.00 Z"/>
</g>
<g fill="#021B8E" fill-opacity="0.95" stroke="None">
<path d="
M 287.00 23.00 
C 268.52 62.62 247.58 101.16 230.00 141.00
C 238.93 137.70 247.11 132.48 256.00 129.00
C 256.00 129.00 256.53 129.11 257.00 129.00
C 264.92 122.65 275.94 119.60 285.08 115.08 C 294.21 110.56 303.48 104.74 313.00 101.00
C 314.98 99.85 316.69 98.83 319.00 98.00
C 343.35 89.23 366.67 74.91 390.00 64.00
C 391.40 63.06 392.42 60.62 394.00 60.00
C 391.37 57.67 390.23 62.92 388.00 60.00
C 368.30 67.43 347.96 73.40 328.00 80.00
C 327.14 80.28 327.21 83.00 324.78 81.22 C 322.34 79.43 324.39 78.93 324.00 78.00
C 317.04 70.54 315.66 58.57 309.08 50.92 C 302.49 43.28 300.97 29.83 294.00 23.00
C 291.66 20.71 289.37 20.72 287.00 23.00
M 293.00 58.00 
C 297.47 65.14 301.13 74.34 305.00 82.00
C 307.76 86.02 309.16 87.42 304.00 90.00
C 293.24 95.38 281.87 99.61 271.00 105.00
C 267.90 106.54 266.33 108.45 267.00 104.00
C 268.15 96.34 274.79 89.02 277.77 81.77 C 280.75 74.52 284.10 64.78 288.00 58.00
C 288.89 56.45 289.03 54.00 292.00 55.00
C 291.47 56.28 292.97 56.86 293.00 58.00 Z"/>
</g>
<g fill="#00407B" fill-opacity="0.12" stroke="None">
<path d="
M 324.00 78.00 
C 325.51 79.62 325.54 79.89 328.00 80.00
C 347.96 73.40 368.30 67.43 388.00 60.00
C 388.35 59.87 388.74 59.22 389.00 59.00
C 379.76 61.96 365.66 67.73 356.68 69.68 C 347.69 71.63 332.01 82.71 324.92 77.08 C 317.83 71.45 314.90 57.31 309.31 49.69 C 303.71 42.08 299.62 30.71 294.00 23.00
C 300.97 29.83 302.49 43.28 309.08 50.92 C 315.66 58.57 317.04 70.54 324.00 78.00 Z"/>
</g>
<g fill="#002F72" fill-opacity="0.33" stroke="None">
<path d="
M 111.00 38.00 
C 113.69 35.09 117.14 31.86 120.00 29.00
C 116.82 31.72 113.65 34.65 111.00 38.00 Z"/>
</g>
<g fill="#002770" fill-opacity="0.34" stroke="None">
<path d="
M 214.00 41.00 
C 211.39 37.19 208.58 34.06 205.00 31.00
C 208.07 34.07 211.18 37.76 214.00 41.00 Z"/>
</g>
<g fill="#03447C" fill-opacity="0.13" stroke="None">
<path d="
M 145.00 39.00 
C 141.44 40.43 138.06 42.73 135.00 45.00
C 128.59 50.99 123.79 56.74 121.00 65.00
C 120.50 66.49 119.87 67.25 120.00 69.00
C 126.82 60.60 126.72 51.74 137.25 44.25 C 147.78 36.76 159.82 38.82 172.00 38.00
C 164.65 33.98 152.62 35.94 145.00 39.00 Z"/>
</g>
<g fill="#000000" fill-opacity="0.00" stroke="None">
<path d="
M 120.00 69.00 
C 120.04 69.50 120.00 70.00 120.00 70.00
C 120.00 85.54 122.54 102.35 136.25 111.75 C 149.96 121.15 167.00 121.61 181.07 115.07 C 195.15 108.53 201.59 93.45 204.00 80.00
C 204.00 79.00 204.00 78.00 204.00 77.00
C 203.36 74.09 202.54 70.33 202.00 67.00
C 202.00 67.00 202.01 66.50 202.00 66.00
C 198.72 59.73 195.72 54.80 191.25 48.75 C 186.77 42.71 178.03 42.09 173.00 38.00
C 173.00 38.00 172.50 37.97 172.00 38.00
C 159.82 38.82 147.78 36.76 137.25 44.25 C 126.72 51.74 126.82 60.60 120.00 69.00
M 185.00 65.00 
C 184.61 66.70 184.33 68.28 184.00 70.00
C 182.87 75.82 182.64 82.14 184.00 88.00
C 185.13 90.96 185.88 94.12 187.00 97.00
C 188.43 99.89 191.21 100.68 190.00 104.00
C 188.92 106.97 185.36 108.83 183.00 110.00
C 182.36 110.32 181.87 110.67 181.00 111.00
C 169.83 118.66 165.90 108.34 163.02 97.98 C 160.15 87.61 156.67 72.75 162.00 63.00
C 162.01 62.50 162.00 62.00 162.00 62.00
C 162.24 55.81 164.86 48.56 169.31 43.31 C 173.75 38.05 180.36 44.48 186.75 48.25 C 193.13 52.02 186.74 59.72 185.00 65.00 Z"/>
</g>
<g fill="#00196D" fill-opacity="0.62" stroke="None">
<path d="
M 135.00 45.00 
C 138.06 42.73 141.44 40.43 145.00 39.00
C 141.48 39.86 138.45 41.78 135.00 45.00 Z"/>
</g>
<g fill="#003C7A" fill-opacity="0.13" stroke="None">
<path d="
M 202.00 66.00 
C 201.90 61.16 197.76 54.87 195.00 51.00
C 193.35 49.04 189.96 45.50 188.00 44.00
C 184.08 41.44 177.83 38.18 173.00 38.00
C 178.03 42.09 186.77 42.71 191.25 48.75 C 195.72 54.80 198.72 59.73 202.00 66.00 Z"/>
</g>
<g fill="#003F76" fill-opacity="0.13" stroke="None">
<path d="
M 162.00 62.00 
C 166.22 57.08 165.69 51.50 169.75 45.75 C 173.82 40.01 179.82 44.15 185.00 48.00
C 188.26 50.43 189.83 51.60 189.00 55.00
C 188.14 58.52 185.83 61.37 185.00 65.00
C 186.74 59.72 193.13 52.02 186.75 48.25 C 180.36 44.48 173.75 38.05 169.31 43.31 C 164.86 48.56 162.24 55.81 162.00 62.00 Z"/>
</g>
<g fill="#011B8E" fill-opacity="0.95" stroke="None">
<path d="
M 162.00 62.00 
C 162.00 62.00 162.01 62.50 162.00 63.00
C 161.63 78.82 158.79 98.01 170.00 111.00
C 173.87 114.34 179.94 111.15 183.00 110.00
C 185.36 108.83 188.92 106.97 190.00 104.00
C 190.34 101.79 187.77 98.99 187.00 97.00
C 185.88 94.12 185.13 90.96 184.00 88.00
C 181.56 81.64 181.90 76.27 184.00 70.00
C 184.33 68.28 184.61 66.70 185.00 65.00
C 185.83 61.37 188.14 58.52 189.00 55.00
C 189.09 52.40 186.89 49.65 185.00 48.00
C 179.82 44.15 173.82 40.01 169.75 45.75 C 165.69 51.50 166.22 57.08 162.00 62.00 Z"/>
</g>
<g fill="#001B77" fill-opacity="0.54" stroke="None">
<path d="
M 195.00 51.00 
C 193.17 48.44 190.71 45.76 188.00 44.00
C 189.96 45.50 193.35 49.04 195.00 51.00 Z"/>
</g>
<g fill="#003A62" fill-opacity="0.10" stroke="None">
<path d="
M 398.00 56.00 
C 401.71 55.15 405.37 54.26 409.00 53.00
C 411.66 52.08 414.77 50.07 418.00 50.00
C 416.21 51.90 413.30 52.64 411.00 54.00
C 407.33 55.88 404.05 57.54 401.00 60.00
C 408.59 55.89 416.94 52.68 424.00 48.00
C 415.34 47.07 406.06 53.10 398.00 56.00 Z"/>
</g>
<g fill="#001965" fill-opacity="0.47" stroke="None">
<path d="
M 189.00 55.00 
C 189.83 51.60 188.26 50.43 185.00 48.00
C 186.89 49.65 189.09 52.40 189.00 55.00 Z"/>
</g>
<g fill="#002258" fill-opacity="0.45" stroke="None">
<path d="
M 409.00 53.00 
C 409.89 53.02 410.73 53.98 411.00 54.00
C 413.30 52.64 416.21 51.90 418.00 50.00
C 414.77 50.07 411.66 52.08 409.00 53.00 Z"/>
</g>
<g fill="#00216F" fill-opacity="0.64" stroke="None">
<path d="
M 398.00 56.00 
C 395.06 56.67 391.42 56.90 389.00 59.00
C 388.74 59.22 388.35 59.87 388.00 60.00
C 390.23 62.92 391.37 57.67 394.00 60.00
C 392.42 60.62 391.40 63.06 390.00 64.00
C 392.96 62.62 395.77 60.56 399.00 60.00
C 399.49 59.92 400.53 60.13 401.00 60.00
C 404.05 57.54 407.33 55.88 411.00 54.00
C 410.73 53.98 409.89 53.02 409.00 53.00
C 405.37 54.26 401.71 55.15 398.00 56.00 Z"/>
</g>
<g fill="#001974" fill-opacity="0.50" stroke="None">
<path d="
M 288.00 58.00 
C 289.57 56.09 291.42 56.20 293.00 58.00
C 292.97 56.86 291.47 56.28 292.00 55.00
C 289.03 54.00 288.89 56.45 288.00 58.00 Z"/>
</g>
<g fill="#003A76" fill-opacity="0.14" stroke="None">
<path d="
M 288.00 58.00 
C 284.10 64.78 280.75 74.52 277.77 81.77 C 274.79 89.02 268.15 96.34 267.00 104.00
C 267.68 106.90 268.77 105.62 271.00 105.00
C 281.87 99.61 293.24 95.38 304.00 90.00
C 304.85 89.43 305.76 88.23 307.00 88.00
C 307.44 85.67 305.76 83.98 305.00 82.00
C 301.13 74.34 297.47 65.14 293.00 58.00
C 291.42 56.20 289.57 56.09 288.00 58.00
M 306.00 88.00 
C 293.07 92.86 280.76 99.61 268.00 105.00
C 274.98 88.90 283.05 73.16 290.00 57.00
C 295.43 66.73 302.31 77.20 306.00 88.00 Z"/>
</g>
<g fill="#000000" fill-opacity="0.00" stroke="None">
<path d="
M 306.00 88.00 
C 302.31 77.20 295.43 66.73 290.00 57.00
C 283.05 73.16 274.98 88.90 268.00 105.00
C 280.76 99.61 293.07 92.86 306.00 88.00 Z"/>
</g>
<g fill="#00407B" fill-opacity="0.13" stroke="None">
<path d="
M 390.00 64.00 
C 366.67 74.91 343.35 89.23 319.00 98.00
C 318.84 98.06 319.00 99.00 319.00 99.00
C 346.04 86.98 372.48 73.00 399.00 60.00
C 395.77 60.56 392.96 62.62 390.00 64.00 Z"/>
</g>
<g fill="#00356F" fill-opacity="0.13" stroke="None">
<path d="
M 181.00 111.00 
C 176.09 112.84 174.06 115.71 170.00 111.00
C 158.79 98.01 161.63 78.82 162.00 63.00
C 156.67 72.75 160.15 87.61 163.02 97.98 C 165.90 108.34 169.83 118.66 181.00 111.00 Z"/>
</g>
<g fill="#002580" fill-opacity="0.76" stroke="None">
<path d="
M 224.00 95.00 
C 224.16 95.44 224.00 96.00 224.00 96.00
C 224.42 94.25 225.26 92.45 225.00 90.00
C 224.95 89.51 225.00 89.00 225.00 89.00
C 221.76 84.63 224.00 71.72 224.00 66.00
C 224.00 65.50 224.06 64.49 224.00 64.00
C 223.84 72.96 220.72 85.74 224.00 95.00 Z"/>
</g>
<g fill="#001A71" fill-opacity="0.65" stroke="None">
<path d="
M 119.00 73.00 
C 119.15 71.30 118.93 71.15 120.00 70.00
C 120.00 70.00 120.04 69.50 120.00 69.00
C 119.87 67.25 120.50 66.49 121.00 65.00
C 118.91 68.82 118.75 68.74 119.00 73.00 Z"/>
</g>
<g fill="#001A6F" fill-opacity="0.42" stroke="None">
<path d="
M 225.00 89.00 
C 224.99 81.67 224.99 74.33 225.00 67.00
C 225.00 67.00 224.97 66.50 225.00 66.00
C 225.00 66.00 224.34 66.23 224.00 66.00
C 224.00 71.72 221.76 84.63 225.00 89.00 Z"/>
</g>
<g fill="#003975" fill-opacity="0.10" stroke="None">
<path d="
M 204.00 77.00 
C 204.00 76.00 204.03 75.00 204.00 74.00
C 203.91 71.31 203.57 68.94 202.00 67.00
C 202.54 70.33 203.36 74.09 204.00 77.00 Z"/>
</g>
<g fill="#174E80" fill-opacity="0.03" stroke="None">
<path d="
M 225.00 89.00 
C 225.00 89.00 224.95 89.51 225.00 90.00
C 225.65 84.94 228.48 71.71 225.00 67.00
C 224.99 74.33 224.99 81.67 225.00 89.00 Z"/>
</g>
<g fill="#004279" fill-opacity="0.13" stroke="None">
<path d="
M 119.00 73.00 
C 117.05 95.76 131.29 116.39 154.00 120.00
C 158.66 120.74 162.60 120.70 167.00 120.00
C 174.70 118.77 181.60 116.76 188.00 112.00
C 191.13 109.28 196.06 104.37 198.00 101.00
C 200.62 95.26 204.25 88.56 204.00 82.00
C 203.98 81.50 204.00 80.50 204.00 80.00
C 201.59 93.45 195.15 108.53 181.07 115.07 C 167.00 121.61 149.96 121.15 136.25 111.75 C 122.54 102.35 120.00 85.54 120.00 70.00
C 118.93 71.15 119.15 71.30 119.00 73.00 Z"/>
</g>
<g fill="#003370" fill-opacity="0.19" stroke="None">
<path d="
M 184.00 88.00 
C 182.64 82.14 182.87 75.82 184.00 70.00
C 181.90 76.27 181.56 81.64 184.00 88.00 Z"/>
</g>
<g fill="#000F70" fill-opacity="0.45" stroke="None">
<path d="
M 204.00 77.00 
C 204.00 78.00 204.00 79.00 204.00 80.00
C 204.00 80.50 203.98 81.50 204.00 82.00
C 204.46 79.18 204.52 76.90 204.00 74.00
C 204.03 75.00 204.00 76.00 204.00 77.00 Z"/>
</g>
<g fill="#001A77" fill-opacity="0.66" stroke="None">
<path d="
M 328.00 80.00 
C 325.54 79.89 325.51 79.62 324.00 78.00
C 324.39 78.93 322.34 79.43 324.78 81.22 C 327.21 83.00 327.14 80.28 328.00 80.00 Z"/>
</g>
<g fill="#00186E" fill-opacity="0.50" stroke="None">
<path d="
M 304.00 90.00 
C 309.16 87.42 307.76 86.02 305.00 82.00
C 305.76 83.98 307.44 85.67 307.00 88.00
C 305.76 88.23 304.85 89.43 304.00 90.00 Z"/>
</g>
<g fill="#003670" fill-opacity="0.14" stroke="None">
<path d="
M 151.00 142.00 
C 140.59 138.37 130.22 135.28 121.00 128.00
C 117.05 124.88 112.98 121.00 110.00 117.00
C 104.69 109.86 103.12 99.30 98.00 93.00
C 98.88 116.05 128.93 141.43 151.00 142.00 Z"/>
</g>
<g fill="#002171" fill-opacity="0.47" stroke="None">
<path d="
M 223.00 100.00 
C 223.54 98.49 224.13 97.75 224.00 96.00
C 224.00 96.00 224.16 95.44 224.00 95.00
C 219.33 96.16 222.94 101.43 223.00 100.00 Z"/>
</g>
<g fill="#003C70" fill-opacity="0.09" stroke="None">
<path d="
M 190.00 104.00 
C 191.21 100.68 188.43 99.89 187.00 97.00
C 187.77 98.99 190.34 101.79 190.00 104.00 Z"/>
</g>
<g fill="#002F71" fill-opacity="0.35" stroke="None">
<path d="
M 313.00 101.00 
C 313.43 100.83 314.00 101.00 314.00 101.00
C 315.72 101.05 317.94 100.50 319.00 99.00
C 319.00 99.00 318.84 98.06 319.00 98.00
C 316.69 98.83 314.98 99.85 313.00 101.00 Z"/>
</g>
<g fill="#001F71" fill-opacity="0.45" stroke="None">
<path d="
M 188.00 112.00 
C 191.83 109.16 196.08 105.21 198.00 101.00
C 196.06 104.37 191.13 109.28 188.00 112.00 Z"/>
</g>
<g fill="#003972" fill-opacity="0.14" stroke="None">
<path d="
M 257.00 129.00 
C 266.33 126.81 277.93 119.74 286.31 115.31 C 294.68 110.87 307.93 107.94 314.00 101.00
C 314.00 101.00 313.43 100.83 313.00 101.00
C 303.48 104.74 294.21 110.56 285.08 115.08 C 275.94 119.60 264.92 122.65 257.00 129.00 Z"/>
</g>
<g fill="#001371" fill-opacity="0.44" stroke="None">
<path d="
M 271.00 105.00 
C 268.77 105.62 267.68 106.90 267.00 104.00
C 266.33 108.45 267.90 106.54 271.00 105.00 Z"/>
</g>
<g fill="#001B70" fill-opacity="0.57" stroke="None">
<path d="
M 170.00 111.00 
C 174.06 115.71 176.09 112.84 181.00 111.00
C 181.87 110.67 182.36 110.32 183.00 110.00
C 179.94 111.15 173.87 114.34 170.00 111.00 Z"/>
</g>
<g fill="#002170" fill-opacity="0.39" stroke="None">
<path d="
M 213.00 119.00 
C 212.04 116.39 214.64 115.31 216.00 114.00
C 216.33 113.69 216.69 112.45 217.00 112.00
C 216.98 112.02 209.47 116.44 213.00 119.00 Z"/>
</g>
<g fill="#06427A" fill-opacity="0.09" stroke="None">
<path d="
M 213.00 119.00 
C 213.43 119.31 217.23 119.82 218.00 120.00
C 227.33 122.13 225.00 128.03 225.00 137.00
C 228.58 128.19 226.24 115.69 214.00 118.00
C 213.86 116.37 215.12 115.22 216.00 114.00
C 214.64 115.31 212.04 116.39 213.00 119.00 Z"/>
</g>
<g fill="#001E81" fill-opacity="0.80" stroke="None">
<path d="
M 328.00 122.00 
C 314.10 131.44 346.08 131.10 348.00 128.00
C 347.85 123.53 343.42 120.47 343.00 116.00
C 337.62 116.36 332.55 119.55 328.00 122.00 Z"/>
</g>
<g fill="#001968" fill-opacity="0.51" stroke="None">
<path d="
M 121.00 128.00 
C 117.55 124.81 113.12 120.58 110.00 117.00
C 112.98 121.00 117.05 124.88 121.00 128.00 Z"/>
</g>
<g fill="#01197E" fill-opacity="0.74" stroke="None">
<path d="
M 167.00 120.00 
C 162.60 120.70 158.66 120.74 154.00 120.00
C 156.69 120.99 158.29 121.89 162.00 122.00 C 165.71 122.11 166.99 120.00 167.00 120.00 Z"/>
</g>
<g fill="#001470" fill-opacity="0.60" stroke="None">
<path d="
M 223.00 142.00 
C 224.92 141.37 225.50 140.46 225.00 138.00
C 225.00 138.00 225.00 137.50 225.00 137.00
C 225.00 128.03 227.33 122.13 218.00 120.00
C 218.71 122.96 222.28 121.30 224.00 123.00
C 221.97 126.51 227.14 139.81 223.00 142.00 Z"/>
</g>
<g fill="#00346F" fill-opacity="0.13" stroke="None">
<path d="
M 348.00 128.00 
C 346.08 131.10 314.10 131.44 328.00 122.00
C 310.47 131.46 347.66 132.68 348.00 128.00 Z"/>
</g>
<g fill="#00366B" fill-opacity="0.09" stroke="None">
<path d="
M 223.00 142.00 
C 221.67 142.44 219.41 142.00 218.00 142.00
C 217.50 142.00 216.50 141.97 216.00 142.00
C 218.02 142.26 230.25 144.56 225.00 138.00
C 225.50 140.46 224.92 141.37 223.00 142.00 Z"/>
</g>
<g fill="#001B6A" fill-opacity="0.42" stroke="None">
<path d="
M 210.00 141.00 
C 211.75 141.41 213.57 142.15 216.00 142.00
C 216.50 141.97 217.50 142.00 218.00 142.00
C 215.36 141.50 212.65 141.08 210.00 141.00 Z"/>
</g>
<g fill="#003B6F" fill-opacity="0.08" stroke="None">
<path d="
M 170.00 142.00 
C 164.37 142.31 158.64 142.00 153.00 142.00
C 157.88 144.08 165.05 142.80 170.00 142.00 Z"/>
</g>
<g fill="#92DADA" fill-opacity="0.02" stroke="None">
<path d="
M 20.00 161.00 
C 22.29 161.00 24.72 160.76 27.00 161.00
C 28.04 161.11 30.30 160.94 31.00 162.00
C 29.97 158.56 21.93 159.58 20.00 161.00 Z"/>
</g>
<g fill="#97E4DB" fill-opacity="0.05" stroke="None">
<path d="
M 31.00 163.00 
C 31.00 168.88 30.80 175.16 31.00 181.00 C 31.20 186.84 30.51 194.41 31.00 200.00 C 31.49 205.60 29.89 214.14 31.00 219.00 C 32.11 223.86 28.05 234.21 32.00 237.00
C 37.82 238.06 45.39 235.38 51.00 237.00 C 56.61 238.62 64.50 232.79 67.92 239.08 C 71.33 245.38 64.51 251.38 58.00 249.00 C 51.49 246.62 45.15 250.95 39.00 249.00 C 32.85 247.05 24.63 251.78 19.00 249.00
C 14.02 246.54 17.70 234.63 17.00 229.00 C 16.30 223.37 16.95 212.12 17.00 206.00 C 17.05 199.88 16.17 188.57 17.00 183.00 C 17.83 177.43 13.90 164.32 19.00 162.00
C 19.19 161.91 19.00 161.00 19.00 161.00
C 13.59 167.87 16.10 181.06 16.00 191.00 C 15.90 200.94 15.21 214.14 16.00 224.00 C 16.79 233.86 11.15 247.66 22.00 250.00 C 32.85 252.34 43.69 246.11 55.00 250.00 C 66.31 253.89 75.72 239.96 64.00 236.00 C 52.28 232.04 43.46 238.97 32.00 236.00
C 31.54 228.06 32.62 218.81 32.00 211.00 C 31.38 203.19 33.18 193.33 32.00 186.00 C 30.82 178.67 35.12 168.57 31.00 163.00 Z"/>
</g>
<g fill="#C8F2F3" fill-opacity="0.36" stroke="None">
<path d="
M 19.00 162.00 
C 21.69 162.24 25.17 161.00 27.00 161.00
C 24.72 160.76 22.29 161.00 20.00 161.00
C 20.00 161.00 19.25 160.75 19.00 161.00
C 19.00 161.00 19.19 161.91 19.00 162.00 Z"/>
</g>
<g fill="#C6F7F3" fill-opacity="0.65" stroke="None">
<path d="
M 19.00 162.00 
C 13.90 164.32 17.83 177.43 17.00 183.00 C 16.17 188.57 17.05 199.88 17.00 206.00 C 16.95 212.12 16.30 223.37 17.00 229.00 C 17.70 234.63 14.02 246.54 19.00 249.00
C 19.39 239.68 18.63 229.06 19.00 219.00 C 19.37 208.94 18.41 195.84 19.00 186.00 C 19.59 176.16 14.27 159.66 29.00 163.00
C 29.62 175.15 28.17 190.13 29.00 202.00 C 29.83 213.87 26.10 229.81 32.00 237.00
C 28.05 234.21 32.11 223.86 31.00 219.00 C 29.89 214.14 31.49 205.60 31.00 200.00 C 30.51 194.41 31.20 186.84 31.00 181.00 C 30.80 175.16 31.00 168.88 31.00 163.00
C 31.00 163.00 31.23 162.35 31.00 162.00
C 30.30 160.94 28.04 161.11 27.00 161.00
C 25.17 161.00 21.69 162.24 19.00 162.00 Z"/>
</g>
<g fill="#CEFDF6" fill-opacity="0.97" stroke="None">
<path d="
M 19.00 249.00 
C 24.63 251.78 32.85 247.05 39.00 249.00 C 45.15 250.95 51.49 246.62 58.00 249.00 C 64.51 251.38 71.33 245.38 67.92 239.08 C 64.50 232.79 56.61 238.62 51.00 237.00 C 45.39 235.38 37.82 238.06 32.00 237.00
C 26.10 229.81 29.83 213.87 29.00 202.00 C 28.17 190.13 29.62 175.15 29.00 163.00
C 14.27 159.66 19.59 176.16 19.00 186.00 C 18.41 195.84 19.37 208.94 19.00 219.00 C 18.63 229.06 19.39 239.68 19.00 249.00 Z"/>
</g>
<g fill="#C8FAF3" fill-opacity="0.84" stroke="None">
<path d="
M 121.00 250.00 
C 115.11 247.93 124.02 249.00 124.00 249.00
C 128.62 247.01 132.88 244.91 137.00 242.00
C 136.60 236.62 130.76 233.14 126.00 236.00
C 113.62 241.85 92.95 238.54 92.00 222.00
C 99.61 220.91 111.86 223.46 119.00 222.00 C 126.14 220.54 138.85 225.82 143.00 220.00
C 142.95 220.12 142.99 210.51 143.00 210.00
C 140.99 198.54 135.93 191.10 125.23 185.77 C 114.53 180.44 102.70 182.04 92.70 187.70 C 82.70 193.35 78.18 202.86 76.33 213.33 C 74.48 223.80 80.45 236.85 88.25 242.75 C 96.06 248.64 112.41 256.36 121.00 250.00
M 114.00 194.00 
C 121.73 196.25 123.55 196.84 128.77 204.23 C 133.99 211.62 123.97 213.30 116.00 212.00 C 108.03 210.70 99.06 212.97 91.00 212.00
C 90.27 204.12 97.42 197.81 104.00 195.00
C 105.17 191.08 111.97 193.41 114.00 194.00 Z"/>
</g>
<g fill="#CAFBF4" fill-opacity="0.88" stroke="None">
<path d="
M 177.00 183.00 
C 167.72 186.28 158.44 195.21 154.00 204.00
C 151.88 209.74 151.56 215.61 152.00 222.00
C 152.50 225.06 154.80 229.76 156.00 233.00
C 160.69 241.70 168.56 249.29 179.00 250.00
C 182.83 250.26 187.17 250.35 191.00 250.00
C 196.61 250.19 200.88 246.35 205.00 243.00
C 203.95 251.47 218.40 253.22 220.00 246.00
C 219.17 247.67 217.09 237.86 218.00 234.00 C 218.91 230.14 217.57 222.65 218.00 218.00 C 218.43 213.35 217.78 206.97 218.00 202.00 C 218.22 197.03 217.83 191.06 218.00 186.00
C 214.67 186.00 211.33 186.00 208.00 186.00
C 208.09 188.45 208.23 191.61 206.00 193.00
C 204.45 192.28 207.64 188.77 205.00 188.00
C 204.18 189.65 192.31 182.47 188.00 182.00
C 188.66 182.24 189.56 184.49 190.00 185.00
C 187.00 185.00 184.00 185.00 181.00 185.00
C 180.47 183.72 181.97 183.14 182.00 182.00
C 180.60 182.17 178.44 182.65 177.00 183.00
M 189.00 196.00 
C 190.62 196.00 192.40 195.79 194.00 196.00
C 212.95 198.55 211.21 239.72 192.00 238.00
C 191.64 244.33 181.86 237.48 181.00 237.00
C 169.47 234.19 165.99 225.23 166.78 213.78 C 167.57 202.33 176.49 196.00 188.00 196.00
C 186.24 195.17 183.49 195.33 182.00 194.00
C 184.04 194.67 191.04 192.29 189.00 196.00 Z"/>
</g>
<g fill="#BCF5F0" fill-opacity="0.53" stroke="None">
<path d="
M 188.00 182.00 
C 186.17 181.80 183.82 181.77 182.00 182.00
C 181.97 183.14 180.47 183.72 181.00 185.00
C 184.00 185.00 187.00 185.00 190.00 185.00
C 189.56 184.49 188.66 182.24 188.00 182.00 Z"/>
</g>
<g fill="#93E5DB" fill-opacity="0.09" stroke="None">
<path d="
M 233.00 200.00 
C 233.00 199.96 234.00 200.00 234.00 200.00
C 234.00 197.67 233.96 195.33 234.00 193.00
C 234.13 185.81 235.24 183.33 243.00 184.00 C 250.76 184.67 244.61 193.38 248.00 198.00
C 252.09 190.51 260.01 185.72 267.00 182.00
C 259.76 184.24 252.50 188.80 249.00 196.00
C 248.39 188.77 248.18 181.93 239.00 183.00 C 229.83 184.07 233.00 192.79 233.00 200.00 Z"/>
</g>
<g fill="#CAFBF4" fill-opacity="0.88" stroke="None">
<path d="
M 234.00 193.00 
C 234.61 200.90 234.35 210.48 235.00 219.00 C 235.65 227.52 233.05 238.52 234.00 246.00
C 237.23 254.75 250.49 250.04 248.00 241.00 C 245.51 231.96 249.22 224.05 249.00 216.00 C 248.79 207.95 254.29 205.19 259.00 200.00
C 260.43 198.42 262.73 194.85 265.03 195.03 C 267.32 195.20 274.30 192.17 273.00 196.00
C 280.41 192.04 276.07 180.73 267.00 182.00
C 260.01 185.72 252.09 190.51 248.00 198.00
C 244.61 193.38 250.76 184.67 243.00 184.00 C 235.24 183.33 234.13 185.81 234.00 193.00 Z"/>
</g>
<g fill="#C9FBF3" fill-opacity="0.86" stroke="None">
<path d="
M 300.00 191.00 
C 299.90 192.66 300.08 194.34 300.00 196.00
C 296.32 194.26 298.67 189.21 298.00 186.00
C 294.67 186.00 291.33 186.00 288.00 186.00
C 288.72 196.99 287.03 211.35 288.00 222.00 C 288.97 232.65 282.41 250.93 298.00 248.00
C 299.30 235.65 295.38 220.76 300.00 210.00
C 300.00 206.85 301.30 206.97 303.00 205.00
C 308.16 199.02 311.84 196.15 320.00 196.00
C 319.45 195.89 317.37 194.70 317.00 194.00
C 319.18 194.26 326.55 192.93 325.00 196.00
C 330.24 200.03 333.83 204.04 333.00 212.00 C 332.17 219.96 334.28 227.43 333.00 236.00 C 331.72 244.57 333.46 251.75 343.00 250.00 C 352.53 248.25 347.40 238.15 348.00 231.00 C 348.60 223.85 349.51 214.91 347.00 209.00
C 346.92 210.55 347.02 212.62 345.00 213.00
C 345.08 210.92 344.31 207.72 347.00 207.00
C 349.19 183.16 313.36 173.21 302.00 193.00
C 301.40 192.79 300.14 191.44 300.00 191.00 Z"/>
</g>
<g fill="#C8FBF3" fill-opacity="0.82" stroke="None">
<path d="
M 358.00 209.00 
C 357.99 211.47 361.40 222.10 358.00 224.00
C 360.35 238.42 371.23 247.15 385.00 250.00
C 390.42 250.49 398.69 250.50 403.00 250.00
C 409.01 248.94 416.82 246.37 419.00 240.00
C 413.53 230.98 407.29 236.17 400.00 238.00
C 396.72 240.01 393.53 242.68 388.00 241.00
C 387.47 239.72 388.97 239.14 389.00 238.00
C 380.37 237.82 373.34 230.05 372.00 222.00
C 386.90 222.45 401.02 221.40 416.00 222.00 C 430.98 222.60 422.73 201.18 417.00 194.00
C 416.58 193.64 411.07 189.07 411.00 189.00
C 394.12 178.44 359.08 182.59 358.00 209.00
M 395.00 194.00 
C 395.30 194.30 395.76 195.86 396.00 196.00
C 402.83 197.61 410.61 202.85 410.00 211.00
C 397.67 211.00 385.33 211.00 373.00 211.00
C 372.89 203.66 379.85 196.64 387.00 196.00
C 388.96 194.91 391.18 190.26 395.00 194.00 Z"/>
</g>
<g fill="#C9FBF4" fill-opacity="0.81" stroke="None">
<path d="
M 449.00 186.00 
C 446.26 183.34 439.93 186.17 437.00 184.00
C 436.50 184.00 436.00 184.00 436.00 184.00
C 430.06 187.21 436.02 198.49 435.00 204.00 C 433.98 209.51 436.19 219.95 434.93 225.93 C 433.67 231.90 433.69 240.33 434.68 246.32 C 435.67 252.32 448.40 251.62 450.00 247.00
C 450.44 245.31 448.76 239.88 449.00 237.00 C 449.24 234.12 449.78 229.31 450.00 227.00
C 450.00 217.46 450.03 209.97 457.00 203.00
C 455.42 204.35 453.68 205.86 452.00 207.00
C 454.45 202.31 460.23 194.90 466.00 197.00
C 469.92 197.66 473.27 195.99 477.00 196.00
C 481.10 185.69 473.61 179.53 465.08 183.08 C 456.54 186.63 455.10 189.42 450.00 196.00
C 450.03 192.54 450.39 188.80 449.00 186.00 Z"/>
</g>
<g fill="#98EDDF" fill-opacity="0.13" stroke="None">
<path d="
M 154.00 204.00 
C 158.44 195.21 167.72 186.28 177.00 183.00
C 166.40 185.56 157.69 194.00 154.00 204.00 Z"/>
</g>
<g fill="#8FE9D3" fill-opacity="0.06" stroke="None">
<path d="
M 206.00 186.00 
C 208.16 183.36 217.52 182.52 220.00 185.00
C 217.33 181.07 207.76 182.17 206.00 186.00 Z"/>
</g>
<g fill="#8EE7DC" fill-opacity="0.05" stroke="None">
<path d="
M 285.00 204.00 
C 285.00 203.96 286.00 204.00 286.00 204.00
C 286.00 202.67 286.00 201.33 286.00 200.00
C 286.00 196.52 285.34 188.22 286.33 185.33 C 287.32 182.44 299.03 183.34 300.00 185.00
C 298.91 182.31 286.46 180.65 285.33 185.33 C 284.20 190.01 285.00 198.85 285.00 204.00 Z"/>
</g>
<g fill="#95F1D6" fill-opacity="0.04" stroke="None">
<path d="
M 436.00 184.00 
C 436.00 184.00 436.50 184.00 437.00 184.00
C 439.98 184.00 444.14 183.23 447.00 184.00
C 444.76 182.89 438.15 181.76 436.00 184.00 Z"/>
</g>
<g fill="#C9FAF6" fill-opacity="0.59" stroke="None">
<path d="
M 206.00 186.00 
C 205.82 186.39 205.01 187.58 205.00 188.00
C 207.64 188.77 204.45 192.28 206.00 193.00
C 208.23 191.61 208.09 188.45 208.00 186.00
C 211.33 186.00 214.67 186.00 218.00 186.00
C 217.83 191.06 218.22 197.03 218.00 202.00 C 217.78 206.97 218.43 213.35 218.00 218.00 C 217.57 222.65 218.91 230.14 218.00 234.00 C 217.09 237.86 219.17 247.67 220.00 246.00
C 222.00 236.97 221.34 222.82 220.00 214.00 C 218.66 205.18 224.30 191.33 220.00 185.00
C 217.52 182.52 208.16 183.36 206.00 186.00 Z"/>
</g>
<g fill="#C7FAF6" fill-opacity="0.67" stroke="None">
<path d="
M 286.00 200.00 
C 286.58 205.98 288.20 215.46 287.00 222.00 C 285.80 228.54 289.77 238.90 286.00 244.00
C 286.00 244.50 286.00 245.00 286.00 245.00
C 286.09 246.20 287.77 247.50 287.00 249.00
C 291.31 248.27 297.29 250.81 300.00 247.00
C 301.75 241.81 299.29 234.46 300.00 229.00 C 300.71 223.54 300.00 217.52 300.00 212.00
C 300.00 211.50 300.00 210.50 300.00 210.00
C 295.38 220.76 299.30 235.65 298.00 248.00
C 282.41 250.93 288.97 232.65 288.00 222.00 C 287.03 211.35 288.72 196.99 288.00 186.00
C 291.33 186.00 294.67 186.00 298.00 186.00
C 298.67 189.21 296.32 194.26 300.00 196.00
C 300.08 194.34 299.90 192.66 300.00 191.00
C 300.09 189.51 300.55 186.37 300.00 185.00
C 299.03 183.34 287.32 182.44 286.33 185.33 C 285.34 188.22 286.00 196.52 286.00 200.00 Z"/>
</g>
<g fill="#CBFEF9" fill-opacity="0.47" stroke="None">
<path d="
M 449.00 186.00 
C 448.02 184.03 448.90 184.95 447.00 184.00
C 444.14 183.23 439.98 184.00 437.00 184.00
C 439.93 186.17 446.26 183.34 449.00 186.00 Z"/>
</g>
<g fill="#AAF2EB" fill-opacity="0.20" stroke="None">
<path d="
M 417.00 194.00 
C 415.11 191.63 413.54 190.59 411.00 189.00
C 411.07 189.07 416.58 193.64 417.00 194.00 Z"/>
</g>
<g fill="#B4F3EE" fill-opacity="0.47" stroke="None">
<path d="
M 104.00 195.00 
C 103.86 195.46 104.00 196.00 104.00 196.00
C 107.42 196.23 110.40 194.87 114.00 195.00
C 113.76 194.81 114.00 194.00 114.00 194.00
C 111.97 193.41 105.17 191.08 104.00 195.00 Z"/>
</g>
<g fill="#BCF6F0" fill-opacity="0.42" stroke="None">
<path d="
M 234.00 200.00 
C 234.00 215.33 234.00 230.67 234.00 246.00
C 233.05 238.52 235.65 227.52 235.00 219.00 C 234.35 210.48 234.61 200.90 234.00 193.00
C 233.96 195.33 234.00 197.67 234.00 200.00 Z"/>
</g>
<g fill="#C0FCF0" fill-opacity="0.61" stroke="None">
<path d="
M 387.00 196.00 
C 387.57 195.83 388.49 195.28 389.00 195.00
C 390.18 194.35 393.29 193.09 395.00 194.00
C 391.18 190.26 388.96 194.91 387.00 196.00 Z"/>
</g>
<g fill="#9CEBDE" fill-opacity="0.13" stroke="None">
<path d="
M 114.00 195.00 
C 119.30 199.10 131.40 200.42 129.00 211.00
C 116.67 211.00 104.33 211.00 92.00 211.00
C 91.61 203.80 98.19 198.74 104.00 196.00
C 104.00 196.00 103.86 195.46 104.00 195.00
C 97.42 197.81 90.27 204.12 91.00 212.00
C 99.06 212.97 108.03 210.70 116.00 212.00 C 123.97 213.30 133.99 211.62 128.77 204.23 C 123.55 196.84 121.73 196.25 114.00 194.00
C 114.00 194.00 113.76 194.81 114.00 195.00 Z"/>
</g>
<g fill="#BFEFEB" fill-opacity="0.42" stroke="None">
<path d="
M 188.00 196.00 
C 188.50 196.00 189.00 196.00 189.00 196.00
C 191.04 192.29 184.04 194.67 182.00 194.00
C 183.49 195.33 186.24 195.17 188.00 196.00 Z"/>
</g>
<g fill="#B7F3EA" fill-opacity="0.44" stroke="None">
<path d="
M 259.00 200.00 
C 263.49 197.25 268.65 198.32 273.00 196.00
C 274.30 192.17 267.32 195.20 265.03 195.03 C 262.73 194.85 260.43 198.42 259.00 200.00 Z"/>
</g>
<g fill="#B9EFE7" fill-opacity="0.32" stroke="None">
<path d="
M 320.00 196.00 
C 321.52 195.97 323.52 195.68 325.00 196.00
C 326.55 192.93 319.18 194.26 317.00 194.00
C 317.37 194.70 319.45 195.89 320.00 196.00 Z"/>
</g>
<g fill="#B5F8E8" fill-opacity="0.16" stroke="None">
<path d="
M 389.00 195.00 
C 391.46 194.47 393.76 195.47 396.00 196.00
C 395.76 195.86 395.30 194.30 395.00 194.00
C 393.29 193.09 390.18 194.35 389.00 195.00 Z"/>
</g>
<g fill="#000000" fill-opacity="0.00" stroke="None">
<path d="
M 104.00 196.00 
C 98.19 198.74 91.61 203.80 92.00 211.00
C 104.33 211.00 116.67 211.00 129.00 211.00
C 131.40 200.42 119.30 199.10 114.00 195.00
C 110.40 194.87 107.42 196.23 104.00 196.00 Z"/>
</g>
<g fill="#000000" fill-opacity="0.00" stroke="None">
<path d="
M 387.00 196.00 
C 379.85 196.64 372.89 203.66 373.00 211.00
C 385.33 211.00 397.67 211.00 410.00 211.00
C 410.61 202.85 402.83 197.61 396.00 196.00
C 393.76 195.47 391.46 194.47 389.00 195.00
C 388.49 195.28 387.57 195.83 387.00 196.00 Z"/>
</g>
<g fill="#000000" fill-opacity="0.00" stroke="None">
<path d="
M 181.00 237.00 
C 184.34 237.81 187.37 238.00 191.00 238.00
C 197.08 233.53 206.89 228.51 205.99 218.99 C 205.09 209.47 204.41 198.27 194.00 196.00
C 192.40 195.79 190.62 196.00 189.00 196.00
C 189.00 196.00 188.50 196.00 188.00 196.00
C 176.49 196.00 167.57 202.33 166.78 213.78 C 165.99 225.23 169.47 234.19 181.00 237.00 Z"/>
</g>
<g fill="#9DEDE0" fill-opacity="0.14" stroke="None">
<path d="
M 191.00 238.00 
C 191.50 238.00 192.00 238.00 192.00 238.00
C 211.21 239.72 212.95 198.55 194.00 196.00
C 204.41 198.27 205.09 209.47 205.99 218.99 C 206.89 228.51 197.08 233.53 191.00 238.00 Z"/>
</g>
<g fill="#B8F2EB" fill-opacity="0.41" stroke="None">
<path d="
M 457.00 203.00 
C 459.53 200.84 462.96 197.72 466.00 197.00
C 460.23 194.90 454.45 202.31 452.00 207.00
C 453.68 205.86 455.42 204.35 457.00 203.00 Z"/>
</g>
<g fill="#8FFCD3" fill-opacity="0.02" stroke="None">
<path d="
M 234.00 246.00 
C 234.00 230.67 234.00 215.33 234.00 200.00
C 234.00 200.00 233.00 199.96 233.00 200.00
C 233.00 213.50 229.50 233.82 234.00 246.00 Z"/>
</g>
<g fill="#C2FBF6" fill-opacity="0.47" stroke="None">
<path d="
M 286.00 204.00 
C 286.00 217.33 286.00 230.67 286.00 244.00
C 289.77 238.90 285.80 228.54 287.00 222.00 C 288.20 215.46 286.58 205.98 286.00 200.00
C 286.00 201.33 286.00 202.67 286.00 204.00 Z"/>
</g>
<g fill="#9AFFD2" fill-opacity="0.02" stroke="None">
<path d="
M 285.00 245.00 
C 285.00 245.04 286.00 245.00 286.00 245.00
C 286.00 245.00 286.00 244.50 286.00 244.00
C 286.00 230.67 286.00 217.33 286.00 204.00
C 286.00 204.00 285.00 203.96 285.00 204.00
C 285.00 217.48 283.78 231.59 285.00 245.00 Z"/>
</g>
<g fill="#97ECE2" fill-opacity="0.13" stroke="None">
<path d="
M 300.00 210.00 
C 300.00 210.50 300.00 211.50 300.00 212.00
C 300.28 210.28 301.87 206.85 303.00 205.00
C 301.30 206.97 300.00 206.85 300.00 210.00 Z"/>
</g>
<g fill="#C9F8F5" fill-opacity="0.57" stroke="None">
<path d="
M 347.00 209.00 
C 346.82 208.58 346.97 207.50 347.00 207.00
C 344.31 207.72 345.08 210.92 345.00 213.00
C 347.02 212.62 346.92 210.55 347.00 209.00 Z"/>
</g>
<g fill="#CCFEFB" fill-opacity="0.41" stroke="None">
<path d="
M 358.00 211.00 
C 358.00 215.22 358.06 219.48 357.00 223.00
C 357.05 223.35 357.97 223.79 358.00 224.00
C 361.40 222.10 357.99 211.47 358.00 209.00
C 357.98 209.50 358.00 210.50 358.00 211.00 Z"/>
</g>
<g fill="#C1F8F0" fill-opacity="0.25" stroke="None">
<path d="
M 143.00 220.00 
C 145.21 216.91 143.55 213.13 143.00 210.00
C 142.99 210.51 142.95 220.12 143.00 220.00 Z"/>
</g>
<g fill="#99FFEB" fill-opacity="0.03" stroke="None">
<path d="
M 357.00 223.00 
C 358.06 219.48 358.00 215.22 358.00 211.00
C 356.71 214.03 356.45 219.21 357.00 223.00 Z"/>
</g>
<g fill="#95EFE8" fill-opacity="0.09" stroke="None">
<path d="
M 156.00 233.00 
C 154.80 229.76 152.50 225.06 152.00 222.00
C 152.32 226.64 153.99 229.27 156.00 233.00 Z"/>
</g>
<g fill="#AAFFF0" fill-opacity="0.02" stroke="None">
<path d="
M 450.00 247.00 
C 451.81 241.77 450.00 232.59 450.00 227.00
C 449.78 229.31 449.24 234.12 449.00 237.00 C 448.76 239.88 450.44 245.31 450.00 247.00 Z"/>
</g>
<g fill="#A3F3E5" fill-opacity="0.14" stroke="None">
<path d="
M 126.00 236.00 
C 130.76 233.14 136.60 236.62 137.00 242.00
C 132.88 244.91 128.62 247.01 124.00 249.00
C 122.92 249.46 122.90 249.40 122.00 250.00
C 127.92 250.45 141.37 243.29 135.75 237.25 C 130.13 231.20 131.01 234.13 126.00 236.00 Z"/>
</g>
<g fill="#B8F4E9" fill-opacity="0.41" stroke="None">
<path d="
M 192.00 238.00 
C 192.00 238.00 191.50 238.00 191.00 238.00
C 187.37 238.00 184.34 237.81 181.00 237.00
C 181.86 237.48 191.64 244.33 192.00 238.00 Z"/>
</g>
<g fill="#BCFDEF" fill-opacity="0.49" stroke="None">
<path d="
M 400.00 238.00 
C 396.03 239.00 392.82 238.78 389.00 238.00
C 388.97 239.14 387.47 239.72 388.00 241.00
C 393.53 242.68 396.72 240.01 400.00 238.00 Z"/>
</g>
<g fill="#A2F1E8" fill-opacity="0.11" stroke="None">
<path d="
M 300.00 247.00 
C 297.29 250.81 291.31 248.27 287.00 249.00
C 287.77 247.50 286.09 246.20 286.00 245.00
C 286.00 245.00 285.00 245.04 285.00 245.00
C 285.93 251.49 298.11 252.61 300.00 247.00 Z"/>
</g>
<g fill="#C5F8F7" fill-opacity="0.64" stroke="None">
<path d="
M 121.00 250.00 
C 121.00 250.00 121.50 249.96 122.00 250.00
C 122.90 249.40 122.92 249.46 124.00 249.00
C 124.02 249.00 115.11 247.93 121.00 250.00 Z"/>
</g>
<g fill="#9CF1DF" fill-opacity="0.11" stroke="None">
<path d="
M 385.00 250.00 
C 390.56 251.15 397.04 251.30 403.00 250.00
C 398.69 250.50 390.42 250.49 385.00 250.00 Z"/>
</g>
<g fill="#92E5D3" fill-opacity="0.09" stroke="None">
<path d="
M 191.00 250.00 
C 187.17 250.35 182.83 250.26 179.00 250.00
C 182.99 250.71 186.93 250.84 191.00 250.00 Z"/>
</g>
</svg>